<svg width="80" height="80" viewBox="0 0 80 80" fill="none" xmlns="http://www.w3.org/2000/svg">
<circle cx="40" cy="40" r="40" fill="#F9F5F1"/>
<circle cx="40" cy="40" r="40" fill="#F9F5F1"/>
<circle cx="40" cy="40" r="40" fill="#F9F5F1"/>
<circle cx="40" cy="40" r="40" fill="#F9F5F1"/>
<circle cx="40" cy="40" r="40" fill="#F9F5F1"/>
<circle cx="40" cy="40" r="40" fill="#F9F5F1"/>
<path d="M40 0C17.91 0 0 17.91 0 40C0 62.09 17.91 80 40 80C62.09 80 80 62.09 80 40C80 17.91 62.09 0 40 0ZM50 26.6667H45.5C43.7067 26.6667 43.3333 27.4033 43.3333 29.26V33.3333H50L49.3033 40H43.3333V63.3333H33.3333V40H26.6667V33.3333H33.3333V25.64C33.3333 19.7433 36.4367 16.6667 43.43 16.6667H50V26.6667Z" fill="#223035"/>
</svg>
