<svg width="112" height="112" viewBox="0 0 112 112" fill="none" xmlns="http://www.w3.org/2000/svg">
<g filter="url(#filter0_dd)">
<circle cx="56" cy="48" r="40" fill="#F9F5F1"/>
<circle cx="56" cy="48" r="40" fill="#F9F5F1"/>
<circle cx="56" cy="48" r="40" fill="#F9F5F1"/>
<circle cx="56" cy="48" r="40" fill="#F9F5F1"/>
<circle cx="56" cy="48" r="40" fill="#F9F5F1"/>
<circle cx="56" cy="48" r="40" fill="#F9F5F1"/>
<path d="M56 8C33.91 8 16 25.91 16 48C16 70.09 33.91 88 56 88C78.09 88 96 70.09 96 48C96 25.91 78.09 8 56 8ZM66 34.6667H61.5C59.7067 34.6667 59.3333 35.4033 59.3333 37.26V41.3333H66L65.3033 48H59.3333V71.3333H49.3333V48H42.6667V41.3333H49.3333V33.64C49.3333 27.7433 52.4367 24.6667 59.43 24.6667H66V34.6667Z" fill="#223035"/>
</g>
<defs>
<filter id="filter0_dd" x="0" y="0" width="112" height="112" filterUnits="userSpaceOnUse" color-interpolation-filters="sRGB">
<feFlood flood-opacity="0" result="BackgroundImageFix"/>
<feColorMatrix in="SourceAlpha" type="matrix" values="0 0 0 0 0 0 0 0 0 0 0 0 0 0 0 0 0 0 127 0"/>
<feOffset dy="8"/>
<feGaussianBlur stdDeviation="8"/>
<feColorMatrix type="matrix" values="0 0 0 0 0.133333 0 0 0 0 0.188235 0 0 0 0 0.207843 0 0 0 0.4 0"/>
<feBlend mode="normal" in2="BackgroundImageFix" result="effect1_dropShadow"/>
<feColorMatrix in="SourceAlpha" type="matrix" values="0 0 0 0 0 0 0 0 0 0 0 0 0 0 0 0 0 0 127 0"/>
<feOffset dy="2"/>
<feGaussianBlur stdDeviation="2"/>
<feColorMatrix type="matrix" values="0 0 0 0 0.133333 0 0 0 0 0.188235 0 0 0 0 0.207843 0 0 0 0.25 0"/>
<feBlend mode="normal" in2="effect1_dropShadow" result="effect2_dropShadow"/>
<feBlend mode="normal" in="SourceGraphic" in2="effect2_dropShadow" result="shape"/>
</filter>
</defs>
</svg>
