<svg width="80" height="80" viewBox="0 0 80 80" fill="none" xmlns="http://www.w3.org/2000/svg">
<circle cx="40" cy="40" r="40" fill="#F9F5F1"/>
<circle cx="40" cy="40" r="40" fill="#F9F5F1"/>
<circle cx="40" cy="40" r="40" fill="#F9F5F1"/>
<circle cx="40" cy="40" r="40" fill="#F9F5F1"/>
<circle cx="40" cy="40" r="40" fill="#F9F5F1"/>
<circle cx="40" cy="40" r="40" fill="#F9F5F1"/>
<path d="M49.43 21.0067C46.97 20.8933 46.23 20.8733 40 20.8733C33.77 20.8733 33.0333 20.8967 30.5733 21.0067C24.2433 21.2967 21.2967 24.2933 21.0067 30.5733C20.8967 33.0333 20.87 33.77 20.87 40C20.87 46.23 20.8967 46.9667 21.0067 49.43C21.2967 55.6933 24.23 58.7067 30.5733 58.9967C33.03 59.1067 33.77 59.1333 40 59.1333C46.2333 59.1333 46.97 59.11 49.43 58.9967C55.76 58.71 58.7033 55.7033 58.9967 49.43C59.1067 46.97 59.13 46.23 59.13 40C59.13 33.77 59.1067 33.0333 58.9967 30.5733C58.7033 24.2967 55.7533 21.2967 49.43 21.0067ZM40 51.9833C33.3833 51.9833 28.0167 46.62 28.0167 40C28.0167 33.3833 33.3833 28.02 40 28.02C46.6167 28.02 51.9833 33.3833 51.9833 40C51.9833 46.6167 46.6167 51.9833 40 51.9833ZM52.4567 30.3467C50.91 30.3467 49.6567 29.0933 49.6567 27.5467C49.6567 26 50.91 24.7467 52.4567 24.7467C54.0033 24.7467 55.2567 26 55.2567 27.5467C55.2567 29.09 54.0033 30.3467 52.4567 30.3467ZM47.7767 40C47.7767 44.2967 44.2933 47.7767 40 47.7767C35.7067 47.7767 32.2233 44.2967 32.2233 40C32.2233 35.7033 35.7067 32.2233 40 32.2233C44.2933 32.2233 47.7767 35.7033 47.7767 40ZM40 0C17.91 0 0 17.91 0 40C0 62.09 17.91 80 40 80C62.09 80 80 62.09 80 40C80 17.91 62.09 0 40 0ZM63.1933 49.62C62.81 58.1033 58.0867 62.8033 49.6233 63.1933C47.1333 63.3067 46.3367 63.3333 40 63.3333C33.6633 63.3333 32.87 63.3067 30.38 63.1933C21.9 62.8033 17.1967 58.0967 16.8067 49.62C16.6933 47.1333 16.6667 46.3367 16.6667 40C16.6667 33.6633 16.6933 32.87 16.8067 30.38C17.1967 21.9 21.9033 17.1967 30.38 16.81C32.87 16.6933 33.6633 16.6667 40 16.6667C46.3367 16.6667 47.1333 16.6933 49.6233 16.81C58.1067 17.2 62.8133 21.9167 63.1933 30.38C63.3067 32.87 63.3333 33.6633 63.3333 40C63.3333 46.3367 63.3067 47.1333 63.1933 49.62Z" fill="#223035"/>
</svg>
