<svg width="112" height="112" viewBox="0 0 112 112" fill="none" xmlns="http://www.w3.org/2000/svg">
<g filter="url(#filter0_dd)">
<circle cx="56" cy="48" r="40" fill="#F9F5F1"/>
<circle cx="56" cy="48" r="40" fill="#F9F5F1"/>
<circle cx="56" cy="48" r="40" fill="#F9F5F1"/>
<circle cx="56" cy="48" r="40" fill="#F9F5F1"/>
<circle cx="56" cy="48" r="40" fill="#F9F5F1"/>
<circle cx="56" cy="48" r="40" fill="#F9F5F1"/>
<path d="M65.43 29.0067C62.97 28.8933 62.23 28.8733 56 28.8733C49.77 28.8733 49.0333 28.8967 46.5733 29.0067C40.2433 29.2967 37.2967 32.2933 37.0067 38.5733C36.8967 41.0333 36.87 41.77 36.87 48C36.87 54.23 36.8967 54.9667 37.0067 57.43C37.2967 63.6933 40.23 66.7067 46.5733 66.9967C49.03 67.1067 49.77 67.1333 56 67.1333C62.2333 67.1333 62.97 67.11 65.43 66.9967C71.76 66.71 74.7033 63.7033 74.9967 57.43C75.1067 54.97 75.13 54.23 75.13 48C75.13 41.77 75.1067 41.0333 74.9967 38.5733C74.7033 32.2967 71.7533 29.2967 65.43 29.0067ZM56 59.9833C49.3833 59.9833 44.0167 54.62 44.0167 48C44.0167 41.3833 49.3833 36.02 56 36.02C62.6167 36.02 67.9833 41.3833 67.9833 48C67.9833 54.6167 62.6167 59.9833 56 59.9833ZM68.4567 38.3467C66.91 38.3467 65.6567 37.0933 65.6567 35.5467C65.6567 34 66.91 32.7467 68.4567 32.7467C70.0033 32.7467 71.2567 34 71.2567 35.5467C71.2567 37.09 70.0033 38.3467 68.4567 38.3467ZM63.7767 48C63.7767 52.2967 60.2933 55.7767 56 55.7767C51.7067 55.7767 48.2233 52.2967 48.2233 48C48.2233 43.7033 51.7067 40.2233 56 40.2233C60.2933 40.2233 63.7767 43.7033 63.7767 48ZM56 8C33.91 8 16 25.91 16 48C16 70.09 33.91 88 56 88C78.09 88 96 70.09 96 48C96 25.91 78.09 8 56 8ZM79.1933 57.62C78.81 66.1033 74.0867 70.8033 65.6233 71.1933C63.1333 71.3067 62.3367 71.3333 56 71.3333C49.6633 71.3333 48.87 71.3067 46.38 71.1933C37.9 70.8033 33.1967 66.0967 32.8067 57.62C32.6933 55.1333 32.6667 54.3367 32.6667 48C32.6667 41.6633 32.6933 40.87 32.8067 38.38C33.1967 29.9 37.9033 25.1967 46.38 24.81C48.87 24.6933 49.6633 24.6667 56 24.6667C62.3367 24.6667 63.1333 24.6933 65.6233 24.81C74.1067 25.2 78.8133 29.9167 79.1933 38.38C79.3067 40.87 79.3333 41.6633 79.3333 48C79.3333 54.3367 79.3067 55.1333 79.1933 57.62Z" fill="#223035"/>
</g>
<defs>
<filter id="filter0_dd" x="0" y="0" width="112" height="112" filterUnits="userSpaceOnUse" color-interpolation-filters="sRGB">
<feFlood flood-opacity="0" result="BackgroundImageFix"/>
<feColorMatrix in="SourceAlpha" type="matrix" values="0 0 0 0 0 0 0 0 0 0 0 0 0 0 0 0 0 0 127 0"/>
<feOffset dy="8"/>
<feGaussianBlur stdDeviation="8"/>
<feColorMatrix type="matrix" values="0 0 0 0 0.133333 0 0 0 0 0.188235 0 0 0 0 0.207843 0 0 0 0.4 0"/>
<feBlend mode="normal" in2="BackgroundImageFix" result="effect1_dropShadow"/>
<feColorMatrix in="SourceAlpha" type="matrix" values="0 0 0 0 0 0 0 0 0 0 0 0 0 0 0 0 0 0 127 0"/>
<feOffset dy="2"/>
<feGaussianBlur stdDeviation="2"/>
<feColorMatrix type="matrix" values="0 0 0 0 0.133333 0 0 0 0 0.188235 0 0 0 0 0.207843 0 0 0 0.25 0"/>
<feBlend mode="normal" in2="effect1_dropShadow" result="effect2_dropShadow"/>
<feBlend mode="normal" in="SourceGraphic" in2="effect2_dropShadow" result="shape"/>
</filter>
</defs>
</svg>
