<svg width="88" height="40" viewBox="0 0 88 40" fill="none" xmlns="http://www.w3.org/2000/svg">
<path d="M6.12 3.28C5.32 3.28 4.70667 3.47333 4.28 3.86C3.85333 4.23333 3.64 4.7 3.64 5.26C3.64 5.75333 3.73333 6.16667 3.92 6.5C4.10667 6.83333 4.35333 7.11333 4.66 7.34C4.96667 7.56667 5.31333 7.76 5.7 7.92C6.1 8.08 6.51333 8.23333 6.94 8.38C7.39333 8.54 7.85333 8.73333 8.32 8.96C8.78667 9.17333 9.20667 9.44667 9.58 9.78C9.95333 10.1 10.2533 10.4933 10.48 10.96C10.72 11.4133 10.84 11.9667 10.84 12.62C10.84 13.2733 10.7067 13.8267 10.44 14.28C10.1733 14.7333 9.82 15.1067 9.38 15.4C8.95333 15.68 8.46 15.88 7.9 16C7.34 16.1333 6.76667 16.2 6.18 16.2C5.31333 16.2 4.48667 16.06 3.7 15.78C2.92667 15.4867 2.26 15.1333 1.7 14.72L2.36 13.76C2.61333 13.92 2.88667 14.08 3.18 14.24C3.47333 14.3867 3.78667 14.5267 4.12 14.66C4.46667 14.7933 4.82667 14.9 5.2 14.98C5.57333 15.06 5.97333 15.1 6.4 15.1C6.82667 15.1 7.23333 15.06 7.62 14.98C8.00667 14.8867 8.34667 14.7467 8.64 14.56C8.93333 14.36 9.16667 14.1067 9.34 13.8C9.51333 13.48 9.6 13.0867 9.6 12.62C9.6 12.14 9.50667 11.7333 9.32 11.4C9.13333 11.0533 8.88667 10.76 8.58 10.52C8.27333 10.2667 7.92 10.0533 7.52 9.88C7.12 9.69333 6.70667 9.52 6.28 9.36C5.82667 9.18667 5.36667 9.00667 4.9 8.82C4.44667 8.62 4.03333 8.37333 3.66 8.08C3.28667 7.77333 2.98 7.4 2.74 6.96C2.51333 6.50667 2.4 5.94 2.4 5.26C2.4 4.84667 2.48667 4.45333 2.66 4.08C2.84667 3.70667 3.10667 3.38 3.44 3.1C3.78667 2.82 4.2 2.6 4.68 2.44C5.17333 2.26667 5.72 2.18 6.32 2.18C6.72 2.18 7.07333 2.18667 7.38 2.2C7.68667 2.21333 7.93333 2.22 8.12 2.22C8.57333 2.22 8.92667 2.17333 9.18 2.08C9.44667 1.97333 9.72 1.78667 10 1.52L10.66 2.2C10.4733 2.45333 10.2867 2.65333 10.1 2.8C9.91333 2.94667 9.71333 3.06 9.5 3.14C9.3 3.22 9.08667 3.27333 8.86 3.3C8.63333 3.31333 8.38667 3.32 8.12 3.32C7.89333 3.32 7.6 3.31333 7.24 3.3C6.88 3.28667 6.50667 3.28 6.12 3.28ZM16.0645 2.32V10.66C16.0645 11.3533 16.1645 11.9733 16.3645 12.52C16.5645 13.0667 16.8445 13.5333 17.2045 13.92C17.5645 14.2933 17.9979 14.5867 18.5045 14.8C19.0112 15 19.5712 15.1 20.1845 15.1C20.7979 15.1 21.3579 15 21.8645 14.8C22.3845 14.5867 22.8245 14.2933 23.1845 13.92C23.5445 13.5333 23.8245 13.0667 24.0245 12.52C24.2245 11.9733 24.3245 11.3533 24.3245 10.66V2.32H25.5445V10.66C25.5445 11.4867 25.4179 12.24 25.1645 12.92C24.9112 13.5867 24.5445 14.1667 24.0645 14.66C23.5979 15.1533 23.0379 15.5333 22.3845 15.8C21.7312 16.0667 21.0045 16.2 20.2045 16.2C19.3912 16.2 18.6512 16.0667 17.9845 15.8C17.3312 15.5333 16.7712 15.1533 16.3045 14.66C15.8379 14.1667 15.4779 13.5867 15.2245 12.92C14.9712 12.24 14.8445 11.4867 14.8445 10.66V2.32H16.0645ZM38.8414 16L37.4414 12.44C37.2947 12.0667 37.1281 11.7333 36.9414 11.44C36.7547 11.1467 36.5281 10.9 36.2614 10.7C36.0081 10.4867 35.7081 10.3267 35.3614 10.22C35.0147 10.1133 34.6147 10.06 34.1614 10.06H32.2414V16H31.0214V3.38C30.5947 3.31333 30.1881 3.19333 29.8014 3.02C29.4281 2.84667 29.1081 2.57333 28.8414 2.2L29.5014 1.52C29.7814 1.78667 30.1147 1.98667 30.5014 2.12C30.8881 2.25333 31.3481 2.32 31.8814 2.32C32.1881 2.32 32.4481 2.31333 32.6614 2.3C32.8747 2.27333 33.0881 2.24667 33.3014 2.22C33.5147 2.19333 33.7481 2.17333 34.0014 2.16C34.2681 2.13333 34.6147 2.12 35.0414 2.12C35.6414 2.12 36.1881 2.22 36.6814 2.42C37.1747 2.62 37.5947 2.9 37.9414 3.26C38.3014 3.60667 38.5814 4.02 38.7814 4.5C38.9814 4.98 39.0814 5.50667 39.0814 6.08C39.0814 7 38.8547 7.76 38.4014 8.36C37.9481 8.94667 37.3347 9.36 36.5614 9.6C37.0014 9.8 37.3547 10.0733 37.6214 10.42C37.9014 10.7667 38.1481 11.1867 38.3614 11.68L40.1614 16H38.8414ZM34.9814 3.22C34.5547 3.22 34.2147 3.23333 33.9614 3.26C33.7081 3.27333 33.4881 3.29333 33.3014 3.32C33.1281 3.33333 32.9614 3.35333 32.8014 3.38C32.6414 3.40667 32.4547 3.42 32.2414 3.42V8.96H35.0214C35.4347 8.96 35.8147 8.89333 36.1614 8.76C36.5214 8.62667 36.8281 8.44 37.0814 8.2C37.3347 7.94667 37.5281 7.64 37.6614 7.28C37.8081 6.92 37.8814 6.52 37.8814 6.08C37.8814 5.2 37.6147 4.50667 37.0814 4C36.5614 3.48 35.8614 3.22 34.9814 3.22ZM51.4178 9.5H45.0778V16H43.8578V2.32H52.8178V3.46H45.0778V8.36H51.4178V9.5ZM60.0341 1.94L66.0141 16H64.7341L62.7941 11.46H56.8941L54.9941 16H53.7141L59.6541 1.94H60.0341ZM57.3741 10.32H62.3141L60.3341 5.66C60.2274 5.40667 60.1274 5.14 60.0341 4.86C59.9541 4.56667 59.8874 4.31333 59.8341 4.1C59.7807 4.32667 59.7141 4.58667 59.6341 4.88C59.5541 5.16 59.4607 5.42 59.3541 5.66L57.3741 10.32ZM77.7094 16L76.3094 12.44C76.1627 12.0667 75.996 11.7333 75.8094 11.44C75.6227 11.1467 75.396 10.9 75.1294 10.7C74.876 10.4867 74.576 10.3267 74.2294 10.22C73.8827 10.1133 73.4827 10.06 73.0294 10.06H71.1094V16H69.8894V3.38C69.4627 3.31333 69.056 3.19333 68.6694 3.02C68.296 2.84667 67.976 2.57333 67.7094 2.2L68.3694 1.52C68.6494 1.78667 68.9827 1.98667 69.3694 2.12C69.756 2.25333 70.216 2.32 70.7494 2.32C71.056 2.32 71.316 2.31333 71.5294 2.3C71.7427 2.27333 71.956 2.24667 72.1694 2.22C72.3827 2.19333 72.616 2.17333 72.8694 2.16C73.136 2.13333 73.4827 2.12 73.9094 2.12C74.5094 2.12 75.056 2.22 75.5494 2.42C76.0427 2.62 76.4627 2.9 76.8094 3.26C77.1694 3.60667 77.4494 4.02 77.6494 4.5C77.8494 4.98 77.9494 5.50667 77.9494 6.08C77.9494 7 77.7227 7.76 77.2694 8.36C76.816 8.94667 76.2027 9.36 75.4294 9.6C75.8694 9.8 76.2227 10.0733 76.4894 10.42C76.7694 10.7667 77.016 11.1867 77.2294 11.68L79.0294 16H77.7094ZM73.8494 3.22C73.4227 3.22 73.0827 3.23333 72.8294 3.26C72.576 3.27333 72.356 3.29333 72.1694 3.32C71.996 3.33333 71.8294 3.35333 71.6694 3.38C71.5094 3.40667 71.3227 3.42 71.1094 3.42V8.96H73.8894C74.3027 8.96 74.6827 8.89333 75.0294 8.76C75.3894 8.62667 75.696 8.44 75.9494 8.2C76.2027 7.94667 76.396 7.64 76.5294 7.28C76.676 6.92 76.7494 6.52 76.7494 6.08C76.7494 5.2 76.4827 4.50667 75.9494 4C75.4294 3.48 74.7294 3.22 73.8494 3.22ZM83.9458 2.32V16H82.7258V2.32H83.9458ZM6.12 25.28C5.32 25.28 4.70667 25.4733 4.28 25.86C3.85333 26.2333 3.64 26.7 3.64 27.26C3.64 27.7533 3.73333 28.1667 3.92 28.5C4.10667 28.8333 4.35333 29.1133 4.66 29.34C4.96667 29.5667 5.31333 29.76 5.7 29.92C6.1 30.08 6.51333 30.2333 6.94 30.38C7.39333 30.54 7.85333 30.7333 8.32 30.96C8.78667 31.1733 9.20667 31.4467 9.58 31.78C9.95333 32.1 10.2533 32.4933 10.48 32.96C10.72 33.4133 10.84 33.9667 10.84 34.62C10.84 35.2733 10.7067 35.8267 10.44 36.28C10.1733 36.7333 9.82 37.1067 9.38 37.4C8.95333 37.68 8.46 37.88 7.9 38C7.34 38.1333 6.76667 38.2 6.18 38.2C5.31333 38.2 4.48667 38.06 3.7 37.78C2.92667 37.4867 2.26 37.1333 1.7 36.72L2.36 35.76C2.61333 35.92 2.88667 36.08 3.18 36.24C3.47333 36.3867 3.78667 36.5267 4.12 36.66C4.46667 36.7933 4.82667 36.9 5.2 36.98C5.57333 37.06 5.97333 37.1 6.4 37.1C6.82667 37.1 7.23333 37.06 7.62 36.98C8.00667 36.8867 8.34667 36.7467 8.64 36.56C8.93333 36.36 9.16667 36.1067 9.34 35.8C9.51333 35.48 9.6 35.0867 9.6 34.62C9.6 34.14 9.50667 33.7333 9.32 33.4C9.13333 33.0533 8.88667 32.76 8.58 32.52C8.27333 32.2667 7.92 32.0533 7.52 31.88C7.12 31.6933 6.70667 31.52 6.28 31.36C5.82667 31.1867 5.36667 31.0067 4.9 30.82C4.44667 30.62 4.03333 30.3733 3.66 30.08C3.28667 29.7733 2.98 29.4 2.74 28.96C2.51333 28.5067 2.4 27.94 2.4 27.26C2.4 26.8467 2.48667 26.4533 2.66 26.08C2.84667 25.7067 3.10667 25.38 3.44 25.1C3.78667 24.82 4.2 24.6 4.68 24.44C5.17333 24.2667 5.72 24.18 6.32 24.18C6.72 24.18 7.07333 24.1867 7.38 24.2C7.68667 24.2133 7.93333 24.22 8.12 24.22C8.57333 24.22 8.92667 24.1733 9.18 24.08C9.44667 23.9733 9.72 23.7867 10 23.52L10.66 24.2C10.4733 24.4533 10.2867 24.6533 10.1 24.8C9.91333 24.9467 9.71333 25.06 9.5 25.14C9.3 25.22 9.08667 25.2733 8.86 25.3C8.63333 25.3133 8.38667 25.32 8.12 25.32C7.89333 25.32 7.6 25.3133 7.24 25.3C6.88 25.2867 6.50667 25.28 6.12 25.28ZM14.2445 31.16C14.2445 30.16 14.4045 29.2333 14.7245 28.38C15.0445 27.5267 15.4912 26.7867 16.0645 26.16C16.6379 25.52 17.3245 25.02 18.1245 24.66C18.9379 24.3 19.8312 24.12 20.8045 24.12C22.2445 24.12 23.3245 24.3733 24.0445 24.88C24.7645 25.3867 25.1245 26.06 25.1245 26.9C25.1245 27.2733 25.0445 27.62 24.8845 27.94C24.7245 28.2467 24.4645 28.52 24.1045 28.76C23.7579 28.9867 23.3112 29.1667 22.7645 29.3C22.2179 29.42 21.5645 29.48 20.8045 29.48H15.6445C15.5245 30 15.4645 30.56 15.4645 31.16H14.2445ZM20.8045 25.22C19.6712 25.22 18.6845 25.5067 17.8445 26.08C17.0179 26.6533 16.3912 27.44 15.9645 28.44H20.8045C21.4045 28.44 21.8979 28.4067 22.2845 28.34C22.6845 28.2733 22.9979 28.1733 23.2245 28.04C23.4645 27.9067 23.6312 27.7467 23.7245 27.56C23.8179 27.36 23.8645 27.14 23.8645 26.9C23.8645 26.34 23.6045 25.92 23.0845 25.64C22.5645 25.36 21.8045 25.22 20.8045 25.22ZM20.0045 38.2C19.0179 38.2 18.1579 38.02 17.4245 37.66C16.7045 37.3 16.1045 36.8067 15.6245 36.18C15.1579 35.54 14.8112 34.7933 14.5845 33.94C14.3579 33.0733 14.2445 32.1467 14.2445 31.16H15.4645C15.4645 32.04 15.5579 32.8467 15.7445 33.58C15.9445 34.3 16.2312 34.92 16.6045 35.44C16.9912 35.96 17.4645 36.3667 18.0245 36.66C18.5979 36.9533 19.2579 37.1 20.0045 37.1C20.4179 37.1 20.8445 37.0467 21.2845 36.94C21.7379 36.82 22.1645 36.68 22.5645 36.52C22.9779 36.36 23.3512 36.1933 23.6845 36.02C24.0179 35.8333 24.2912 35.6733 24.5045 35.54L25.0245 36.44C24.8245 36.6 24.5512 36.7867 24.2045 37C23.8712 37.2 23.4845 37.3933 23.0445 37.58C22.6045 37.7533 22.1245 37.9 21.6045 38.02C21.0979 38.14 20.5645 38.2 20.0045 38.2ZM39.0356 24.32V38H37.8156V31.46H30.4356V38H29.2156V24.32H30.4356V30.32H37.8156V24.32H39.0356ZM57.6289 24.2C57.3222 24.6267 56.9356 24.9333 56.4689 25.12C56.0022 25.2933 55.5289 25.3933 55.0489 25.42C55.2489 25.6867 55.4622 26.0133 55.6889 26.4C55.9289 26.7733 56.1489 27.2 56.3489 27.68C56.5489 28.16 56.7089 28.6933 56.8289 29.28C56.9622 29.8533 57.0289 30.48 57.0289 31.16C57.0289 32.16 56.8689 33.0933 56.5489 33.96C56.2289 34.8133 55.7689 35.5533 55.1689 36.18C54.5822 36.8067 53.8756 37.3 53.0489 37.66C52.2222 38.02 51.3022 38.2 50.2889 38.2C49.2622 38.2 48.3356 38.02 47.5089 37.66C46.6822 37.3 45.9689 36.8067 45.3689 36.18C44.7822 35.54 44.3289 34.7933 44.0089 33.94C43.6889 33.0867 43.5289 32.16 43.5289 31.16C43.5289 30.16 43.6889 29.2333 44.0089 28.38C44.3289 27.5133 44.7822 26.7667 45.3689 26.14C45.9689 25.5133 46.6822 25.02 47.5089 24.66C48.3356 24.3 49.2622 24.12 50.2889 24.12C51.1289 24.12 51.8956 24.1533 52.5889 24.22C53.2956 24.2867 53.9622 24.32 54.5889 24.32C55.1222 24.32 55.5822 24.2533 55.9689 24.12C56.3556 23.9867 56.6889 23.7867 56.9689 23.52L57.6289 24.2ZM55.8289 31.16C55.8289 30.32 55.7289 29.5733 55.5289 28.92C55.3289 28.2533 55.0956 27.68 54.8289 27.2C54.5756 26.7067 54.3222 26.3133 54.0689 26.02C53.8156 25.7133 53.6356 25.5067 53.5289 25.4C53.0356 25.3733 52.5156 25.34 51.9689 25.3C51.4356 25.2467 50.8689 25.22 50.2689 25.22C49.4422 25.22 48.6889 25.3667 48.0089 25.66C47.3289 25.94 46.7489 26.3467 46.2689 26.88C45.7889 27.4 45.4156 28.0267 45.1489 28.76C44.8822 29.48 44.7489 30.28 44.7489 31.16C44.7489 32.04 44.8822 32.8467 45.1489 33.58C45.4156 34.3 45.7889 34.92 46.2689 35.44C46.7622 35.96 47.3489 36.3667 48.0289 36.66C48.7089 36.9533 49.4622 37.1 50.2889 37.1C51.1156 37.1 51.8689 36.96 52.5489 36.68C53.2289 36.3867 53.8089 35.98 54.2889 35.46C54.7822 34.9267 55.1622 34.3 55.4289 33.58C55.6956 32.8467 55.8289 32.04 55.8289 31.16ZM74.9273 24.2C74.6207 24.6267 74.234 24.9333 73.7673 25.12C73.3007 25.2933 72.8273 25.3933 72.3473 25.42C72.5473 25.6867 72.7607 26.0133 72.9873 26.4C73.2273 26.7733 73.4473 27.2 73.6473 27.68C73.8473 28.16 74.0073 28.6933 74.1273 29.28C74.2607 29.8533 74.3273 30.48 74.3273 31.16C74.3273 32.16 74.1673 33.0933 73.8473 33.96C73.5273 34.8133 73.0673 35.5533 72.4673 36.18C71.8807 36.8067 71.174 37.3 70.3473 37.66C69.5207 38.02 68.6007 38.2 67.5873 38.2C66.5607 38.2 65.634 38.02 64.8073 37.66C63.9807 37.3 63.2673 36.8067 62.6673 36.18C62.0807 35.54 61.6273 34.7933 61.3073 33.94C60.9873 33.0867 60.8273 32.16 60.8273 31.16C60.8273 30.16 60.9873 29.2333 61.3073 28.38C61.6273 27.5133 62.0807 26.7667 62.6673 26.14C63.2673 25.5133 63.9807 25.02 64.8073 24.66C65.634 24.3 66.5607 24.12 67.5873 24.12C68.4273 24.12 69.194 24.1533 69.8873 24.22C70.594 24.2867 71.2607 24.32 71.8873 24.32C72.4207 24.32 72.8807 24.2533 73.2673 24.12C73.654 23.9867 73.9873 23.7867 74.2673 23.52L74.9273 24.2ZM73.1273 31.16C73.1273 30.32 73.0273 29.5733 72.8273 28.92C72.6273 28.2533 72.394 27.68 72.1273 27.2C71.874 26.7067 71.6207 26.3133 71.3673 26.02C71.114 25.7133 70.934 25.5067 70.8273 25.4C70.334 25.3733 69.814 25.34 69.2673 25.3C68.734 25.2467 68.1673 25.22 67.5673 25.22C66.7407 25.22 65.9873 25.3667 65.3073 25.66C64.6273 25.94 64.0473 26.3467 63.5673 26.88C63.0873 27.4 62.714 28.0267 62.4473 28.76C62.1807 29.48 62.0473 30.28 62.0473 31.16C62.0473 32.04 62.1807 32.8467 62.4473 33.58C62.714 34.3 63.0873 34.92 63.5673 35.44C64.0607 35.96 64.6473 36.3667 65.3273 36.66C66.0073 36.9533 66.7607 37.1 67.5873 37.1C68.414 37.1 69.1673 36.96 69.8473 36.68C70.5273 36.3867 71.1073 35.98 71.5873 35.46C72.0807 34.9267 72.4607 34.3 72.7273 33.58C72.994 32.8467 73.1273 32.04 73.1273 31.16ZM86.5858 38H78.8258V24.32H80.0458V36.86H86.5858V38Z" fill="#223035"/>
<path d="M4.28 3.86L4.9385 4.61258L4.94506 4.60684L4.95152 4.60099L4.28 3.86ZM3.92 6.5L4.79251 6.0114L4.79251 6.0114L3.92 6.5ZM4.66 7.34L5.25439 6.53582L5.25439 6.53582L4.66 7.34ZM5.7 7.92L5.31762 8.84408L5.32861 8.84848L5.7 7.92ZM6.94 8.38L7.27283 7.43698L7.26508 7.43431L6.94 8.38ZM8.32 8.96L7.8831 9.85951L7.89361 9.86461L7.90424 9.86947L8.32 8.96ZM9.58 9.78L8.91398 10.5259L8.92153 10.5327L8.92921 10.5393L9.58 9.78ZM10.48 10.96L9.58049 11.3969L9.58808 11.4125L9.59621 11.4279L10.48 10.96ZM10.44 14.28L11.3019 14.787V14.787L10.44 14.28ZM9.38 15.4L9.92867 16.2361L9.9347 16.232L9.38 15.4ZM7.9 16L7.69047 15.0222L7.6794 15.0246L7.66838 15.0272L7.9 16ZM3.7 15.78L3.34535 16.715L3.35497 16.7186L3.36468 16.7221L3.7 15.78ZM1.7 14.72L0.875958 14.1535L0.328125 14.9503L1.10615 15.5246L1.7 14.72ZM2.36 13.76L2.89399 12.9145L2.08083 12.4009L1.53596 13.1935L2.36 13.76ZM3.18 14.24L2.70115 15.1179L2.71682 15.1264L2.73279 15.1344L3.18 14.24ZM4.12 14.66L3.74858 15.5886L3.76102 15.5933L4.12 14.66ZM7.62 14.98L7.82261 15.9593L7.83868 15.9559L7.85464 15.9521L7.62 14.98ZM8.64 14.56L9.17688 15.4037L9.19024 15.3952L9.20334 15.3862L8.64 14.56ZM9.34 13.8L10.2106 14.2921L10.215 14.2842L10.2193 14.2763L9.34 13.8ZM9.32 11.4L8.43953 11.8741L8.44345 11.8814L8.44749 11.8886L9.32 11.4ZM8.58 10.52L7.94312 11.291L7.9533 11.2994L7.96369 11.3075L8.58 10.52ZM7.52 9.88L7.09711 10.7862L7.10967 10.792L7.12239 10.7976L7.52 9.88ZM6.28 9.36L5.92285 10.2941L5.92888 10.2963L6.28 9.36ZM4.9 8.82L4.49636 9.73492L4.51237 9.74198L4.52861 9.74848L4.9 8.82ZM3.66 8.08L3.02526 8.85273L3.03365 8.85961L3.04218 8.86632L3.66 8.08ZM2.74 6.96L1.84557 7.40721L1.85356 7.42318L1.8621 7.43885L2.74 6.96ZM2.66 4.08L1.76557 3.63279L1.75909 3.64575L1.75299 3.65889L2.66 4.08ZM3.44 3.1L2.81166 2.32206L2.80418 2.3281L2.79681 2.33429L3.44 3.1ZM4.68 2.44L4.99623 3.38868L5.00388 3.38613L5.01149 3.38346L4.68 2.44ZM7.38 2.2L7.42344 1.20094H7.42344L7.38 2.2ZM9.18 2.08L9.52571 3.01834L9.53862 3.01359L9.55139 3.00848L9.18 2.08ZM10 1.52L10.7176 0.823524L10.0277 0.112701L9.31035 0.795861L10 1.52ZM10.66 2.2L11.4651 2.7932L11.9675 2.11131L11.3776 1.50352L10.66 2.2ZM9.5 3.14L9.14887 2.20367L9.1387 2.20749L9.12861 2.21152L9.5 3.14ZM8.86 3.3L8.91873 4.29827L8.94786 4.29656L8.97684 4.29315L8.86 3.3ZM7.24 3.3L7.27701 2.30068H7.27701L7.24 3.3ZM6.12 2.28C5.16871 2.28 4.2801 2.51036 3.60848 3.11901L4.95152 4.60099C5.13323 4.43631 5.47129 4.28 6.12 4.28V2.28ZM3.6215 3.10742C2.9809 3.66794 2.64 4.40756 2.64 5.26H4.64C4.64 4.99244 4.72576 4.79872 4.9385 4.61258L3.6215 3.10742ZM2.64 5.26C2.64 5.87583 2.75633 6.46866 3.04749 6.9886L4.79251 6.0114C4.71034 5.86467 4.64 5.63083 4.64 5.26H2.64ZM3.04749 6.9886C3.30331 7.44542 3.6447 7.83307 4.06561 8.14418L5.25439 6.53582C5.06197 6.3936 4.91002 6.22124 4.79251 6.0114L3.04749 6.9886ZM4.06561 8.14418C4.44382 8.42372 4.86292 8.65585 5.31765 8.84402L6.08235 6.99598C5.76375 6.86415 5.48952 6.70961 5.25439 6.53582L4.06561 8.14418ZM5.32861 8.84848C5.7446 9.01487 6.17341 9.17391 6.61492 9.32569L7.26508 7.43431C6.85326 7.29275 6.4554 7.14513 6.07139 6.99152L5.32861 8.84848ZM6.60718 9.32299C7.02237 9.46953 7.44765 9.648 7.8831 9.85951L8.7569 8.06049C8.25902 7.81866 7.7643 7.61047 7.27282 7.43701L6.60718 9.32299ZM7.90424 9.86947C8.28209 10.0422 8.61729 10.261 8.91398 10.5259L10.246 9.03406C9.79605 8.6323 9.29124 8.30446 8.73576 8.05052L7.90424 9.86947ZM8.92921 10.5393C9.19272 10.7651 9.41039 11.0467 9.58049 11.3969L11.3795 10.5231C11.0963 9.93998 10.7139 9.43488 10.2308 9.02074L8.92921 10.5393ZM9.59621 11.4279C9.74184 11.703 9.84 12.0862 9.84 12.62H11.84C11.84 11.8471 11.6982 11.1237 11.3638 10.4921L9.59621 11.4279ZM9.84 12.62C9.84 13.1379 9.73485 13.5065 9.57807 13.773L11.3019 14.787C11.6785 14.1469 11.84 13.4088 11.84 12.62H9.84ZM9.57807 13.773C9.38839 14.0954 9.14037 14.3579 8.8253 14.5679L9.9347 16.232C10.4996 15.8554 10.9583 15.3712 11.3019 14.787L9.57807 13.773ZM8.83134 14.564C8.51985 14.7684 8.14433 14.9249 7.69047 15.0222L8.10953 16.9778C8.77567 16.8351 9.38682 16.5916 9.92866 16.236L8.83134 14.564ZM7.66838 15.0272C7.18571 15.1421 6.69016 15.2 6.18 15.2V17.2C6.84317 17.2 7.49429 17.1246 8.13162 16.9728L7.66838 15.0272ZM6.18 15.2C5.42321 15.2 4.71029 15.0781 4.03532 14.8379L3.36468 16.7221C4.26304 17.0419 5.20346 17.2 6.18 17.2V15.2ZM4.05465 14.845C3.3511 14.5781 2.76818 14.2655 2.29385 13.9154L1.10615 15.5246C1.75182 16.0011 2.50223 16.3952 3.34535 16.715L4.05465 14.845ZM2.52404 15.2865L3.18404 14.3265L1.53596 13.1935L0.875958 14.1535L2.52404 15.2865ZM1.82601 14.6055C2.09928 14.7781 2.39119 14.9488 2.70115 15.1179L3.65885 13.3621C3.38214 13.2112 3.12739 13.0619 2.89399 12.9145L1.82601 14.6055ZM2.73279 15.1344C3.0531 15.2946 3.39192 15.4458 3.74861 15.5885L4.49139 13.7315C4.18141 13.6075 3.89356 13.4787 3.62721 13.3456L2.73279 15.1344ZM3.76102 15.5933C4.15761 15.7459 4.56766 15.8672 4.99047 15.9578L5.40953 14.0022C5.08567 13.9328 4.77573 13.8408 4.47898 13.7267L3.76102 15.5933ZM4.99047 15.9578C5.44016 16.0542 5.911 16.1 6.4 16.1V14.1C6.03566 14.1 5.7065 14.0658 5.40953 14.0022L4.99047 15.9578ZM6.4 16.1C6.88932 16.1 7.36418 16.0541 7.82261 15.9593L7.4174 14.0007C7.10248 14.0659 6.76402 14.1 6.4 14.1V16.1ZM7.85464 15.9521C8.33326 15.8366 8.77824 15.6573 9.17688 15.4037L8.10313 13.7163C7.91509 13.836 7.68008 13.9368 7.38536 14.0079L7.85464 15.9521ZM9.20334 15.3862C9.62231 15.1006 9.96118 14.7333 10.2106 14.2921L8.46944 13.3079C8.37216 13.4801 8.24436 13.6194 8.07666 13.7338L9.20334 15.3862ZM10.2193 14.2763C10.4911 13.7745 10.6 13.2072 10.6 12.62H8.6C8.6 12.9661 8.53556 13.1855 8.46071 13.3237L10.2193 14.2763ZM10.6 12.62C10.6 12.0121 10.4816 11.4276 10.1925 10.9114L8.44749 11.8886C8.53174 12.039 8.6 12.2679 8.6 12.62H10.6ZM10.2005 10.9259C9.94908 10.459 9.61296 10.0586 9.19631 9.73249L7.96369 11.3075C8.16038 11.4614 8.31759 11.6476 8.43953 11.8741L10.2005 10.9259ZM9.21688 9.74904C8.83116 9.4304 8.39566 9.1696 7.91761 8.96244L7.12239 10.7976C7.44434 10.9371 7.71551 11.1029 7.94312 11.291L9.21688 9.74904ZM7.94289 8.97382C7.51862 8.77583 7.08131 8.59249 6.63112 8.42367L5.92888 10.2963C6.33202 10.4475 6.72138 10.6108 7.09711 10.7862L7.94289 8.97382ZM6.63714 8.42595C6.18874 8.2545 5.73349 8.07636 5.27139 7.89152L4.52861 9.74848C4.99985 9.93697 5.4646 10.1188 5.92286 10.2941L6.63714 8.42595ZM5.30364 7.90508C4.92346 7.73735 4.58261 7.53316 4.27782 7.29368L3.04218 8.86632C3.48406 9.21351 3.96988 9.50265 4.49636 9.73492L5.30364 7.90508ZM4.29474 7.30727C4.02427 7.0851 3.79879 6.81279 3.6179 6.48115L1.8621 7.43885C2.16121 7.98721 2.54906 8.46156 3.02526 8.85273L4.29474 7.30727ZM3.63443 6.51279C3.49674 6.23741 3.4 5.83535 3.4 5.26H1.4C1.4 6.04465 1.52993 6.77592 1.84557 7.40721L3.63443 6.51279ZM3.4 5.26C3.4 4.9915 3.4552 4.74194 3.56701 4.50111L1.75299 3.65889C1.51814 4.16473 1.4 4.70183 1.4 5.26H3.4ZM3.55443 4.52721C3.67736 4.28134 3.8499 4.06167 4.08319 3.8657L2.79681 2.33429C2.36344 2.69833 2.01597 3.13199 1.76557 3.63279L3.55443 4.52721ZM4.06834 3.87794C4.31031 3.6825 4.61443 3.51595 4.99623 3.38868L4.36377 1.49132C3.78557 1.68405 3.26302 1.9575 2.81166 2.32206L4.06834 3.87794ZM5.01149 3.38346C5.38388 3.25262 5.81651 3.18 6.32 3.18V1.18C5.62349 1.18 4.96279 1.28071 4.34851 1.49654L5.01149 3.38346ZM6.32 3.18C6.70958 3.18 7.04793 3.18651 7.33656 3.19906L7.42344 1.20094C7.09874 1.18683 6.73042 1.18 6.32 1.18V3.18ZM7.33656 3.19905C7.64978 3.21267 7.91265 3.22 8.12 3.22V1.22C7.95402 1.22 7.72355 1.21399 7.42344 1.20094L7.33656 3.19905ZM8.12 3.22C8.62239 3.22 9.11155 3.17093 9.52571 3.01834L8.83429 1.14166C8.74178 1.17574 8.52428 1.22 8.12 1.22V3.22ZM9.55139 3.00848C9.96935 2.84129 10.3475 2.56997 10.6897 2.24414L9.31035 0.795861C9.09247 1.00336 8.92398 1.10537 8.80861 1.15152L9.55139 3.00848ZM9.28242 2.21647L9.94242 2.89647L11.3776 1.50352L10.7176 0.823524L9.28242 2.21647ZM9.85494 1.6068C9.70548 1.80964 9.57933 1.93735 9.48218 2.01368L10.7178 3.58632C10.994 3.36932 11.2412 3.09702 11.4651 2.7932L9.85494 1.6068ZM9.48218 2.01368C9.37278 2.09964 9.26217 2.16119 9.14887 2.20367L9.85113 4.07633C10.1645 3.95881 10.4539 3.7937 10.7178 3.58632L9.48218 2.01368ZM9.12861 2.21152C9.01496 2.25698 8.88769 2.28984 8.74316 2.30685L8.97684 4.29315C9.28564 4.25682 9.58504 4.18302 9.87139 4.06848L9.12861 2.21152ZM8.80128 2.30172C8.59718 2.31373 8.37035 2.32 8.12 2.32V4.32C8.40298 4.32 8.66949 4.31293 8.91873 4.29827L8.80128 2.30172ZM8.12 2.32C7.91065 2.32 7.63094 2.31379 7.27701 2.30068L7.20299 4.29931C7.56907 4.31287 7.87601 4.32 8.12 4.32V2.32ZM7.27701 2.30068C6.90382 2.28686 6.51812 2.28 6.12 2.28V4.28C6.49522 4.28 6.85618 4.28647 7.20299 4.29931L7.27701 2.30068ZM16.0645 2.32H17.0645V1.32H16.0645V2.32ZM16.3645 12.52L17.3037 12.1764L16.3645 12.52ZM17.2045 13.92L16.4726 14.6014L16.4786 14.6078L16.4847 14.6141L17.2045 13.92ZM18.5045 14.8L18.1165 15.7216L18.1269 15.726L18.1374 15.7302L18.5045 14.8ZM21.8645 14.8L22.2317 15.7302L22.2441 15.7252L21.8645 14.8ZM23.1845 13.92L23.9044 14.6141L23.9105 14.6078L23.9164 14.6014L23.1845 13.92ZM24.0245 12.52L23.0854 12.1764L24.0245 12.52ZM24.3245 2.32V1.32H23.3245V2.32H24.3245ZM25.5445 2.32H26.5445V1.32H25.5445V2.32ZM25.1645 12.92L26.0993 13.2752L26.1016 13.2691L25.1645 12.92ZM24.0645 14.66L23.3477 13.9626L23.3381 13.9728L24.0645 14.66ZM22.3845 15.8L22.0066 14.8742L22.3845 15.8ZM17.9845 15.8L17.6066 16.7259L17.6131 16.7285L17.9845 15.8ZM16.3045 14.66L15.5781 15.3472H15.5781L16.3045 14.66ZM15.2245 12.92L14.2874 13.2691L14.2897 13.2752L15.2245 12.92ZM14.8445 2.32V1.32H13.8445V2.32H14.8445ZM15.0645 2.32V10.66H17.0645V2.32H15.0645ZM15.0645 10.66C15.0645 11.4487 15.1783 12.188 15.4254 12.8636L17.3037 12.1764C17.1508 11.7586 17.0645 11.258 17.0645 10.66H15.0645ZM15.4254 12.8636C15.6666 13.5227 16.0129 14.1076 16.4726 14.6014L17.9364 13.2386C17.6762 12.9591 17.4625 12.6106 17.3037 12.1764L15.4254 12.8636ZM16.4847 14.6141C16.9443 15.0908 17.4926 15.4589 18.1165 15.7216L18.8926 13.8784C18.5032 13.7144 18.1848 13.4959 17.9244 13.2259L16.4847 14.6141ZM18.1374 15.7302C18.7748 15.9818 19.4613 16.1 20.1845 16.1V14.1C19.6811 14.1 19.2476 14.0182 18.8717 13.8698L18.1374 15.7302ZM20.1845 16.1C20.9078 16.1 21.5943 15.9818 22.2317 15.7302L21.4974 13.8698C21.1214 14.0182 20.6879 14.1 20.1845 14.1V16.1ZM22.2441 15.7252C22.8814 15.4637 23.4404 15.0953 23.9044 14.6141L22.4647 13.2259C22.2087 13.4913 21.8876 13.7096 21.485 13.8748L22.2441 15.7252ZM23.9164 14.6014C24.3762 14.1076 24.7225 13.5227 24.9637 12.8636L23.0854 12.1764C22.9266 12.6106 22.7129 12.9591 22.4526 13.2386L23.9164 14.6014ZM24.9637 12.8636C25.2108 12.188 25.3245 11.4487 25.3245 10.66H23.3245C23.3245 11.258 23.2383 11.7586 23.0854 12.1764L24.9637 12.8636ZM25.3245 10.66V2.32H23.3245V10.66H25.3245ZM24.3245 3.32H25.5445V1.32H24.3245V3.32ZM24.5445 2.32V10.66H26.5445V2.32H24.5445ZM24.5445 10.66C24.5445 11.3839 24.4338 12.017 24.2274 12.5709L26.1016 13.2691C26.4019 12.463 26.5445 11.5895 26.5445 10.66H24.5445ZM24.2297 12.5648C24.0232 13.1084 23.729 13.5708 23.3478 13.9626L24.7813 15.3574C25.36 14.7625 25.7992 14.0649 26.0993 13.2752L24.2297 12.5648ZM23.3381 13.9728C22.9731 14.3586 22.5334 14.6591 22.0066 14.8742L22.7624 16.7258C23.5423 16.4075 24.2226 15.9481 24.791 15.3472L23.3381 13.9728ZM22.0066 14.8742C21.4883 15.0857 20.8922 15.2 20.2045 15.2V17.2C21.1169 17.2 21.9741 17.0476 22.7624 16.7258L22.0066 14.8742ZM20.2045 15.2C19.5016 15.2 18.8898 15.0851 18.3559 14.8715L17.6131 16.7285C18.4126 17.0482 19.2808 17.2 20.2045 17.2V15.2ZM18.3624 14.8742C17.8357 14.6591 17.3959 14.3586 17.031 13.9728L15.5781 15.3472C16.1465 15.9481 16.8267 16.4075 17.6066 16.7258L18.3624 14.8742ZM17.031 13.9728C16.6595 13.5801 16.3682 13.1144 16.1593 12.5648L14.2897 13.2752C14.5875 14.0589 15.0162 14.7533 15.5781 15.3472L17.031 13.9728ZM16.1616 12.5709C15.9553 12.017 15.8445 11.3839 15.8445 10.66H13.8445C13.8445 11.5895 13.9871 12.463 14.2874 13.2691L16.1616 12.5709ZM15.8445 10.66V2.32H13.8445V10.66H15.8445ZM14.8445 3.32H16.0645V1.32H14.8445V3.32ZM38.8414 16L37.9108 16.366L38.1601 17H38.8414V16ZM37.4414 12.44L36.5107 12.8057L36.5108 12.806L37.4414 12.44ZM36.9414 11.44L37.7851 10.9031L36.9414 11.44ZM36.2614 10.7L35.6173 11.4649L35.6388 11.4831L35.6614 11.5L36.2614 10.7ZM35.3614 10.22L35.0673 11.1758V11.1758L35.3614 10.22ZM32.2414 10.06V9.06H31.2414V10.06H32.2414ZM32.2414 16V17H33.2414V16H32.2414ZM31.0214 16H30.0214V17H31.0214V16ZM31.0214 3.38H32.0214V2.52412L31.1758 2.39199L31.0214 3.38ZM29.8014 3.02L29.3803 3.92709L29.3923 3.93251L29.8014 3.02ZM28.8414 2.2L28.1238 1.50352L27.5427 2.10227L28.0277 2.78124L28.8414 2.2ZM29.5014 1.52L30.1911 0.795861L29.4737 0.112701L28.7838 0.823524L29.5014 1.52ZM30.5014 2.12L30.1754 3.06537L30.1754 3.06537L30.5014 2.12ZM32.6614 2.3L32.7238 3.29805L32.7547 3.29612L32.7854 3.29228L32.6614 2.3ZM33.3014 2.22L33.4254 3.21228L33.4254 3.21228L33.3014 2.22ZM34.0014 2.16L34.054 3.15862L34.0775 3.15738L34.1009 3.15504L34.0014 2.16ZM37.9414 3.26L37.2211 3.95364L37.2342 3.96723L37.2478 3.98032L37.9414 3.26ZM38.7814 4.5L39.7045 4.11538V4.11538L38.7814 4.5ZM38.4014 8.36L39.1927 8.97148L39.1993 8.96283L38.4014 8.36ZM36.5614 9.6L36.265 8.64494L33.7564 9.42346L36.1476 10.5104L36.5614 9.6ZM37.6214 10.42L36.8288 11.0297L36.836 11.0391L36.8435 11.0483L37.6214 10.42ZM38.3614 11.68L39.2846 11.2954L39.2793 11.2831L38.3614 11.68ZM40.1614 16V17H41.6614L41.0845 15.6154L40.1614 16ZM33.9614 3.26L34.014 4.25862L34.0401 4.25724L34.0661 4.2545L33.9614 3.26ZM33.3014 3.32L33.3781 4.31705L33.4106 4.31456L33.4428 4.30995L33.3014 3.32ZM32.8014 3.38L32.637 2.3936L32.637 2.39361L32.8014 3.38ZM32.2414 3.42V2.42H31.2414V3.42H32.2414ZM32.2414 8.96H31.2414V9.96H32.2414V8.96ZM36.1614 8.76L35.8141 7.82218L35.8024 7.82665L36.1614 8.76ZM37.0814 8.2L37.7691 8.92595L37.779 8.91666L37.7885 8.90711L37.0814 8.2ZM37.6614 7.28L36.7353 6.9027L36.7292 6.9176L36.7237 6.93269L37.6614 7.28ZM37.0814 4L36.3743 4.70711L36.3834 4.71617L36.3927 4.725L37.0814 4ZM39.772 15.634L38.372 12.074L36.5108 12.806L37.9108 16.366L39.772 15.634ZM38.3722 12.0743C38.2055 11.6502 38.011 11.2581 37.7851 10.9031L36.0977 11.9769C36.2452 12.2086 36.384 12.4832 36.5107 12.8057L38.3722 12.0743ZM37.7851 10.9031C37.5365 10.5126 37.2286 10.1754 36.8614 9.9L35.6614 11.5C35.8275 11.6246 35.973 11.7808 36.0977 11.9769L37.7851 10.9031ZM36.9055 9.93509C36.5401 9.62737 36.1182 9.40659 35.6555 9.26422L35.0673 11.1758C35.298 11.2467 35.476 11.346 35.6173 11.4649L36.9055 9.93509ZM35.6555 9.26422C35.1932 9.12199 34.6907 9.06 34.1614 9.06V11.06C34.5388 11.06 34.8363 11.1047 35.0673 11.1758L35.6555 9.26422ZM34.1614 9.06H32.2414V11.06H34.1614V9.06ZM31.2414 10.06V16H33.2414V10.06H31.2414ZM32.2414 15H31.0214V17H32.2414V15ZM32.0214 16V3.38H30.0214V16H32.0214ZM31.1758 2.39199C30.8353 2.33879 30.5144 2.24375 30.2105 2.10749L29.3923 3.93251C29.8617 4.14292 30.3542 4.28788 30.867 4.36801L31.1758 2.39199ZM30.2225 2.11299C30.0234 2.02055 29.8331 1.86786 29.6551 1.61876L28.0277 2.78124C28.3831 3.2788 28.8327 3.67278 29.3803 3.92701L30.2225 2.11299ZM29.559 2.89647L30.219 2.21647L28.7838 0.823524L28.1238 1.50352L29.559 2.89647ZM28.8118 2.24414C29.2016 2.61547 29.6611 2.88801 30.1754 3.06537L30.8274 1.17463C30.5684 1.08533 30.3612 0.957863 30.1911 0.795861L28.8118 2.24414ZM30.1754 3.06537C30.6933 3.24397 31.269 3.32 31.8814 3.32V1.32C31.4272 1.32 31.0828 1.2627 30.8274 1.17463L30.1754 3.06537ZM31.8814 3.32C32.2008 3.32 32.4829 3.31311 32.7238 3.29805L32.599 1.30195C32.4132 1.31356 32.1754 1.32 31.8814 1.32V3.32ZM32.7854 3.29228C32.8566 3.28339 33.0343 3.26117 33.1054 3.25228C33.1521 3.24644 33.1388 3.24811 33.1854 3.24228C33.2321 3.23644 33.2188 3.23811 33.2654 3.23228C33.3121 3.22644 33.2988 3.22811 33.3454 3.22228C33.3921 3.21644 33.3788 3.21811 33.4254 3.21228L33.1774 1.22772C33.1063 1.23661 32.9285 1.25883 32.8574 1.26772C32.8107 1.27355 32.824 1.27189 32.7774 1.27772C32.7307 1.28355 32.744 1.28189 32.6974 1.28772C32.6507 1.29355 32.664 1.29189 32.6174 1.29772C32.5707 1.30355 32.584 1.30189 32.5374 1.30772L32.7854 3.29228ZM33.4254 3.21228C33.6113 3.18905 33.8204 3.17091 34.054 3.15862L33.9488 1.16138C33.6757 1.17576 33.4182 1.19762 33.1774 1.22772L33.4254 3.21228ZM34.1009 3.15504C34.3211 3.13302 34.631 3.12 35.0414 3.12V1.12C34.5985 1.12 34.215 1.13365 33.9019 1.16496L34.1009 3.15504ZM35.0414 3.12C35.5289 3.12 35.9459 3.20089 36.3057 3.34674L37.0571 1.49326C36.4302 1.23911 35.7539 1.12 35.0414 1.12V3.12ZM36.3057 3.34674C36.6777 3.49755 36.9779 3.70112 37.2211 3.95364L38.6617 2.56636C38.2116 2.09887 37.6718 1.74245 37.0571 1.49326L36.3057 3.34674ZM37.2478 3.98032C37.5051 4.22813 37.7088 4.52582 37.8583 4.88462L39.7045 4.11538C39.454 3.51418 39.0977 2.9852 38.635 2.53968L37.2478 3.98032ZM37.8583 4.88461C38.0026 5.2308 38.0814 5.6251 38.0814 6.08H40.0814C40.0814 5.38823 39.9602 4.7292 39.7045 4.11538L37.8583 4.88461ZM38.0814 6.08C38.0814 6.83215 37.8986 7.36665 37.6035 7.75717L39.1993 8.96283C39.8109 8.15335 40.0814 7.16785 40.0814 6.08H38.0814ZM37.6101 7.74855C37.2941 8.15748 36.861 8.45998 36.265 8.64494L36.8578 10.5551C37.8085 10.26 38.602 9.73586 39.1927 8.97145L37.6101 7.74855ZM36.1476 10.5104C36.4546 10.6499 36.6721 10.826 36.8288 11.0297L38.414 9.81029C38.0374 9.32071 37.5482 8.9501 36.9752 8.68963L36.1476 10.5104ZM36.8435 11.0483C37.0563 11.3118 37.259 11.6502 37.4436 12.0769L39.2793 11.2831C39.0371 10.7231 38.7465 10.2215 38.3993 9.79166L36.8435 11.0483ZM37.4383 12.0646L39.2383 16.3846L41.0845 15.6154L39.2845 11.2954L37.4383 12.0646ZM40.1614 15H38.8414V17H40.1614V15ZM34.9814 2.22C34.5397 2.22 34.1602 2.23355 33.8567 2.26549L34.0661 4.2545C34.2693 4.23312 34.5698 4.22 34.9814 4.22V2.22ZM33.9088 2.26138C33.6352 2.27578 33.3842 2.29802 33.16 2.33005L33.4428 4.30995C33.592 4.28864 33.781 4.27088 34.014 4.25862L33.9088 2.26138ZM33.2247 2.32295C33.0241 2.33838 32.8281 2.36176 32.637 2.3936L32.9658 4.36639C33.0948 4.3449 33.2321 4.32829 33.3781 4.31705L33.2247 2.32295ZM32.637 2.39361C32.5452 2.40891 32.4158 2.42 32.2414 2.42V4.42C32.4937 4.42 32.7376 4.40442 32.9658 4.36639L32.637 2.39361ZM31.2414 3.42V8.96H33.2414V3.42H31.2414ZM32.2414 9.96H35.0214V7.96H32.2414V9.96ZM35.0214 9.96C35.5437 9.96 36.0469 9.87544 36.5204 9.69335L35.8024 7.82665C35.5825 7.91123 35.3258 7.96 35.0214 7.96V9.96ZM36.5087 9.69775C36.9826 9.52224 37.4084 9.26772 37.7691 8.92595L36.3937 7.47405C36.2477 7.61228 36.0602 7.73109 35.8141 7.82225L36.5087 9.69775ZM37.7885 8.90711C38.1509 8.5447 38.4194 8.11263 38.5992 7.62731L36.7237 6.93269C36.6367 7.16737 36.5186 7.34863 36.3743 7.49289L37.7885 8.90711ZM38.5875 7.6573C38.789 7.16272 38.8814 6.63239 38.8814 6.08H36.8814C36.8814 6.40761 36.8272 6.67728 36.7353 6.9027L38.5875 7.6573ZM38.8814 6.08C38.8814 4.98399 38.5407 4.00706 37.7702 3.275L36.3927 4.725C36.6887 5.00627 36.8814 5.416 36.8814 6.08H38.8814ZM37.7885 3.29289C37.0449 2.54923 36.0708 2.22 34.9814 2.22V4.22C35.6521 4.22 36.078 4.41076 36.3743 4.70711L37.7885 3.29289ZM51.4178 9.5V10.5H52.4178V9.5H51.4178ZM45.0778 9.5V8.5H44.0778V9.5H45.0778ZM45.0778 16V17H46.0778V16H45.0778ZM43.8578 16H42.8578V17H43.8578V16ZM43.8578 2.32V1.32H42.8578V2.32H43.8578ZM52.8178 2.32H53.8178V1.32H52.8178V2.32ZM52.8178 3.46V4.46H53.8178V3.46H52.8178ZM45.0778 3.46V2.46H44.0778V3.46H45.0778ZM45.0778 8.36H44.0778V9.36H45.0778V8.36ZM51.4178 8.36H52.4178V7.36H51.4178V8.36ZM51.4178 8.5H45.0778V10.5H51.4178V8.5ZM44.0778 9.5V16H46.0778V9.5H44.0778ZM45.0778 15H43.8578V17H45.0778V15ZM44.8578 16V2.32H42.8578V16H44.8578ZM43.8578 3.32H52.8178V1.32H43.8578V3.32ZM51.8178 2.32V3.46H53.8178V2.32H51.8178ZM52.8178 2.46H45.0778V4.46H52.8178V2.46ZM44.0778 3.46V8.36H46.0778V3.46H44.0778ZM45.0778 9.36H51.4178V7.36H45.0778V9.36ZM50.4178 8.36V9.5H52.4178V8.36H50.4178ZM60.0341 1.94L60.9543 1.54861L60.6954 0.94H60.0341V1.94ZM66.0141 16V17H67.5261L66.9343 15.6086L66.0141 16ZM64.7341 16L63.8145 16.3929L64.0739 17H64.7341V16ZM62.7941 11.46L63.7136 11.0671L63.4542 10.46H62.7941V11.46ZM56.8941 11.46V10.46H56.2285L55.9716 11.0739L56.8941 11.46ZM54.9941 16V17H55.6596L55.9165 16.3861L54.9941 16ZM53.7141 16L52.7929 15.6108L52.206 17H53.7141V16ZM59.6541 1.94V0.94H58.991L58.7329 1.55083L59.6541 1.94ZM57.3741 10.32L56.4537 9.92894L55.8626 11.32H57.3741V10.32ZM62.3141 10.32V11.32H63.8255L63.2344 9.92894L62.3141 10.32ZM60.3341 5.66L59.4124 6.04806L59.4137 6.05106L60.3341 5.66ZM60.0341 4.86L59.0693 5.12312L59.0766 5.14989L59.0854 5.17623L60.0341 4.86ZM59.8341 4.1L60.8042 3.85746L58.8606 3.87096L59.8341 4.1ZM59.6341 4.88L60.5957 5.15474L60.5988 5.14312L59.6341 4.88ZM59.3541 5.66L58.4403 5.25386L58.4369 5.26138L58.4337 5.26894L59.3541 5.66ZM59.1138 2.33139L65.0938 16.3914L66.9343 15.6086L60.9543 1.54861L59.1138 2.33139ZM66.0141 15H64.7341V17H66.0141V15ZM65.6536 15.6071L63.7136 11.0671L61.8745 11.8529L63.8145 16.3929L65.6536 15.6071ZM62.7941 10.46H56.8941V12.46H62.7941V10.46ZM55.9716 11.0739L54.0716 15.6139L55.9165 16.3861L57.8165 11.8461L55.9716 11.0739ZM54.9941 15H53.7141V17H54.9941V15ZM54.6352 16.3892L60.5752 2.32917L58.7329 1.55083L52.7929 15.6108L54.6352 16.3892ZM59.6541 2.94H60.0341V0.94H59.6541V2.94ZM57.3741 11.32H62.3141V9.32H57.3741V11.32ZM63.2344 9.92894L61.2544 5.26894L59.4137 6.05106L61.3937 10.7111L63.2344 9.92894ZM61.2557 5.27194C61.1597 5.04385 61.0686 4.80125 60.9827 4.54377L59.0854 5.17623C59.1862 5.47875 59.2951 5.76949 59.4124 6.04806L61.2557 5.27194ZM60.9988 4.59688C60.92 4.30802 60.8553 4.06188 60.8042 3.85746L58.8639 4.34254C58.9195 4.56478 58.9881 4.82532 59.0693 5.12312L60.9988 4.59688ZM58.8606 3.87096C58.8107 4.08339 58.7471 4.33166 58.6693 4.61688L60.5988 5.14312C60.681 4.84167 60.7508 4.56994 60.8075 4.32904L58.8606 3.87096ZM58.6725 4.60528C58.604 4.84518 58.5261 5.0608 58.4403 5.25386L60.2679 6.06614C60.3954 5.7792 60.5041 5.47482 60.5956 5.15472L58.6725 4.60528ZM58.4337 5.26894L56.4537 9.92894L58.2944 10.7111L60.2744 6.05106L58.4337 5.26894ZM77.7094 16L76.7787 16.366L77.0281 17H77.7094V16ZM76.3094 12.44L75.3786 12.8057L75.3788 12.806L76.3094 12.44ZM75.8094 11.44L76.653 10.9031L75.8094 11.44ZM75.1294 10.7L74.4852 11.4649L74.5068 11.4831L74.5294 11.5L75.1294 10.7ZM74.2294 10.22L73.9353 11.1758V11.1758L74.2294 10.22ZM71.1094 10.06V9.06H70.1094V10.06H71.1094ZM71.1094 16V17H72.1094V16H71.1094ZM69.8894 16H68.8894V17H69.8894V16ZM69.8894 3.38H70.8894V2.52412L70.0438 2.39199L69.8894 3.38ZM68.6694 3.02L68.2482 3.92709L68.2603 3.93251L68.6694 3.02ZM67.7094 2.2L66.9918 1.50352L66.4107 2.10227L66.8956 2.78124L67.7094 2.2ZM68.3694 1.52L69.059 0.795861L68.3417 0.112701L67.6518 0.823524L68.3694 1.52ZM69.3694 2.12L69.0434 3.06537L69.0434 3.06537L69.3694 2.12ZM71.5294 2.3L71.5918 3.29805L71.6227 3.29612L71.6534 3.29228L71.5294 2.3ZM72.1694 2.22L72.2934 3.21228V3.21228L72.1694 2.22ZM72.8694 2.16L72.9219 3.15862L72.9454 3.15738L72.9689 3.15504L72.8694 2.16ZM76.8094 3.26L76.0891 3.95364L76.1021 3.96723L76.1157 3.98032L76.8094 3.26ZM77.6494 4.5L78.5725 4.11538L78.5724 4.11538L77.6494 4.5ZM77.2694 8.36L78.0607 8.97148L78.0672 8.96283L77.2694 8.36ZM75.4294 9.6L75.133 8.64494L72.6244 9.42346L75.0156 10.5104L75.4294 9.6ZM76.4894 10.42L75.6968 11.0297L75.704 11.0391L75.7114 11.0483L76.4894 10.42ZM77.2294 11.68L78.1525 11.2954L78.1472 11.2831L77.2294 11.68ZM79.0294 16V17H80.5294L79.9525 15.6154L79.0294 16ZM72.8294 3.26L72.8819 4.25862L72.9081 4.25724L72.9341 4.2545L72.8294 3.26ZM72.1694 3.32L72.2461 4.31705L72.2785 4.31456L72.3108 4.30995L72.1694 3.32ZM71.6694 3.38L71.505 2.3936L71.505 2.39361L71.6694 3.38ZM71.1094 3.42V2.42H70.1094V3.42H71.1094ZM71.1094 8.96H70.1094V9.96H71.1094V8.96ZM75.0294 8.76L74.682 7.82218L74.6704 7.82665L75.0294 8.76ZM75.9494 8.2L76.6371 8.92595L76.6469 8.91666L76.6565 8.90711L75.9494 8.2ZM76.5294 7.28L75.6033 6.9027L75.5972 6.9176L75.5916 6.93269L76.5294 7.28ZM75.9494 4L75.2423 4.70711L75.2513 4.71617L75.2606 4.725L75.9494 4ZM78.64 15.634L77.24 12.074L75.3788 12.806L76.7787 16.366L78.64 15.634ZM77.2401 12.0743C77.0735 11.6502 76.8789 11.2581 76.653 10.9031L74.9657 11.9769C75.1132 12.2086 75.2519 12.4832 75.3786 12.8057L77.2401 12.0743ZM76.653 10.9031C76.4045 10.5126 76.0966 10.1754 75.7294 9.9L74.5294 11.5C74.6955 11.6246 74.8409 11.7808 74.9657 11.9769L76.653 10.9031ZM75.7735 9.93509C75.4081 9.62737 74.9862 9.40659 74.5235 9.26422L73.9353 11.1758C74.1659 11.2467 74.344 11.346 74.4852 11.4649L75.7735 9.93509ZM74.5235 9.26422C74.0612 9.12199 73.5586 9.06 73.0294 9.06V11.06C73.4068 11.06 73.7042 11.1047 73.9353 11.1758L74.5235 9.26422ZM73.0294 9.06H71.1094V11.06H73.0294V9.06ZM70.1094 10.06V16H72.1094V10.06H70.1094ZM71.1094 15H69.8894V17H71.1094V15ZM70.8894 16V3.38H68.8894V16H70.8894ZM70.0438 2.39199C69.7033 2.33879 69.3824 2.24375 69.0784 2.10749L68.2603 3.93251C68.7297 4.14292 69.2222 4.28788 69.735 4.36801L70.0438 2.39199ZM69.0905 2.11299C68.8914 2.02055 68.701 1.86786 68.5231 1.61876L66.8956 2.78124C67.251 3.2788 67.7007 3.67278 68.2483 3.92701L69.0905 2.11299ZM68.427 2.89647L69.087 2.21647L67.6518 0.823524L66.9918 1.50352L68.427 2.89647ZM67.6797 2.24414C68.0696 2.61547 68.529 2.88801 69.0434 3.06537L69.6954 1.17463C69.4364 1.08533 69.2291 0.957863 69.059 0.795861L67.6797 2.24414ZM69.0434 3.06537C69.5613 3.24397 70.137 3.32 70.7494 3.32V1.32C70.2951 1.32 69.9508 1.2627 69.6954 1.17463L69.0434 3.06537ZM70.7494 3.32C71.0687 3.32 71.3509 3.31311 71.5918 3.29805L71.467 1.30195C71.2812 1.31356 71.0433 1.32 70.7494 1.32V3.32ZM71.6534 3.29228C71.7245 3.28339 71.9023 3.26117 71.9734 3.25228C72.0201 3.24644 72.0067 3.24811 72.0534 3.24228C72.1001 3.23644 72.0867 3.23811 72.1334 3.23228C72.1801 3.22644 72.1667 3.22811 72.2134 3.22228C72.2601 3.21644 72.2467 3.21811 72.2934 3.21228L72.0453 1.22772C71.9742 1.23661 71.7965 1.25883 71.7253 1.26772C71.6787 1.27355 71.692 1.27189 71.6453 1.27772C71.5987 1.28355 71.612 1.28189 71.5653 1.28772C71.5187 1.29355 71.532 1.29189 71.4853 1.29772C71.4387 1.30355 71.452 1.30189 71.4053 1.30772L71.6534 3.29228ZM72.2934 3.21228C72.4792 3.18905 72.6884 3.17091 72.9219 3.15862L72.8168 1.16138C72.5437 1.17576 72.2862 1.19762 72.0453 1.22772L72.2934 3.21228ZM72.9689 3.15504C73.1891 3.13302 73.499 3.12 73.9094 3.12V1.12C73.4664 1.12 73.083 1.13365 72.7699 1.16496L72.9689 3.15504ZM73.9094 3.12C74.3969 3.12 74.8139 3.20089 75.1737 3.34674L75.9251 1.49326C75.2982 1.23911 74.6219 1.12 73.9094 1.12V3.12ZM75.1737 3.34674C75.5457 3.49755 75.8459 3.70112 76.0891 3.95364L77.5297 2.56636C77.0795 2.09887 76.5397 1.74245 75.9251 1.49326L75.1737 3.34674ZM76.1157 3.98032C76.3731 4.22813 76.5768 4.52582 76.7263 4.88462L78.5724 4.11538C78.322 3.51418 77.9657 2.9852 77.503 2.53968L76.1157 3.98032ZM76.7263 4.88461C76.8705 5.2308 76.9494 5.6251 76.9494 6.08H78.9494C78.9494 5.38823 78.8282 4.7292 78.5725 4.11538L76.7263 4.88461ZM76.9494 6.08C76.9494 6.83215 76.7666 7.36665 76.4715 7.75717L78.0672 8.96283C78.6789 8.15335 78.9494 7.16785 78.9494 6.08H76.9494ZM76.4781 7.74855C76.1621 8.15748 75.7289 8.45998 75.133 8.64494L75.7258 10.5551C76.6765 10.26 77.47 9.73586 78.0607 8.97145L76.4781 7.74855ZM75.0156 10.5104C75.3225 10.6499 75.54 10.826 75.6968 11.0297L77.282 9.81029C76.9054 9.32071 76.4162 8.9501 75.8432 8.68963L75.0156 10.5104ZM75.7114 11.0483C75.9243 11.3118 76.127 11.6502 76.3115 12.0769L78.1472 11.2831C77.9051 10.7231 77.6145 10.2215 77.2673 9.79166L75.7114 11.0483ZM76.3063 12.0646L78.1063 16.3846L79.9525 15.6154L78.1525 11.2954L76.3063 12.0646ZM79.0294 15H77.7094V17H79.0294V15ZM73.8494 2.22C73.4077 2.22 73.0282 2.23355 72.7247 2.26549L72.9341 4.2545C73.1373 4.23312 73.4378 4.22 73.8494 4.22V2.22ZM72.7768 2.26138C72.5032 2.27578 72.2522 2.29802 72.028 2.33005L72.3108 4.30995C72.4599 4.28864 72.6489 4.27088 72.8819 4.25862L72.7768 2.26138ZM72.0927 2.32295C71.892 2.33838 71.696 2.36176 71.505 2.3936L71.8338 4.36639C71.9627 4.3449 72.1 4.32829 72.2461 4.31705L72.0927 2.32295ZM71.505 2.39361C71.4132 2.40891 71.2837 2.42 71.1094 2.42V4.42C71.3617 4.42 71.6056 4.40442 71.8338 4.36639L71.505 2.39361ZM70.1094 3.42V8.96H72.1094V3.42H70.1094ZM71.1094 9.96H73.8894V7.96H71.1094V9.96ZM73.8894 9.96C74.4116 9.96 74.9149 9.87544 75.3884 9.69335L74.6704 7.82665C74.4505 7.91123 74.1938 7.96 73.8894 7.96V9.96ZM75.3767 9.69775C75.8506 9.52224 76.2764 9.26772 76.6371 8.92595L75.2616 7.47405C75.1157 7.61228 74.9282 7.73109 74.6821 7.82225L75.3767 9.69775ZM76.6565 8.90711C77.0189 8.5447 77.2874 8.11263 77.4671 7.62731L75.5916 6.93269C75.5047 7.16737 75.3865 7.34863 75.2423 7.49289L76.6565 8.90711ZM77.4555 7.6573C77.657 7.16272 77.7494 6.63239 77.7494 6.08H75.7494C75.7494 6.40761 75.6951 6.67728 75.6033 6.9027L77.4555 7.6573ZM77.7494 6.08C77.7494 4.98399 77.4087 4.00706 76.6381 3.275L75.2606 4.725C75.5567 5.00627 75.7494 5.416 75.7494 6.08H77.7494ZM76.6565 3.29289C75.9128 2.54923 74.9387 2.22 73.8494 2.22V4.22C74.52 4.22 74.9459 4.41076 75.2423 4.70711L76.6565 3.29289ZM83.9458 2.32H84.9458V1.32H83.9458V2.32ZM83.9458 16V17H84.9458V16H83.9458ZM82.7258 16H81.7258V17H82.7258V16ZM82.7258 2.32V1.32H81.7258V2.32H82.7258ZM82.9458 2.32V16H84.9458V2.32H82.9458ZM83.9458 15H82.7258V17H83.9458V15ZM83.7258 16V2.32H81.7258V16H83.7258ZM82.7258 3.32H83.9458V1.32H82.7258V3.32ZM4.28 25.86L4.9385 26.6126L4.94506 26.6068L4.95152 26.601L4.28 25.86ZM3.92 28.5L4.79251 28.0114L4.79251 28.0114L3.92 28.5ZM4.66 29.34L5.25439 28.5358H5.25439L4.66 29.34ZM5.7 29.92L5.31762 30.8441L5.32861 30.8485L5.7 29.92ZM6.94 30.38L7.27283 29.437L7.26508 29.4343L6.94 30.38ZM8.32 30.96L7.8831 31.8595L7.89361 31.8646L7.90424 31.8695L8.32 30.96ZM9.58 31.78L8.91398 32.5259L8.92153 32.5327L8.92921 32.5393L9.58 31.78ZM10.48 32.96L9.58049 33.3969L9.58808 33.4125L9.59621 33.4279L10.48 32.96ZM10.44 36.28L11.3019 36.787V36.787L10.44 36.28ZM9.38 37.4L9.92867 38.2361L9.9347 38.2321L9.38 37.4ZM7.9 38L7.69047 37.0222L7.6794 37.0246L7.66838 37.0272L7.9 38ZM3.7 37.78L3.34535 38.715L3.35497 38.7187L3.36468 38.7221L3.7 37.78ZM1.7 36.72L0.875958 36.1535L0.328125 36.9503L1.10615 37.5246L1.7 36.72ZM2.36 35.76L2.89399 34.9145L2.08083 34.4009L1.53596 35.1935L2.36 35.76ZM3.18 36.24L2.70115 37.1179L2.71682 37.1264L2.73279 37.1344L3.18 36.24ZM4.12 36.66L3.74858 37.5886L3.76102 37.5933L4.12 36.66ZM7.62 36.98L7.82261 37.9593L7.83868 37.9559L7.85464 37.9521L7.62 36.98ZM8.64 36.56L9.17688 37.4037L9.19024 37.3952L9.20334 37.3862L8.64 36.56ZM9.34 35.8L10.2106 36.2921L10.215 36.2842L10.2193 36.2763L9.34 35.8ZM9.32 33.4L8.43953 33.8741L8.44345 33.8814L8.44749 33.8886L9.32 33.4ZM8.58 32.52L7.94312 33.291L7.9533 33.2994L7.96369 33.3075L8.58 32.52ZM7.52 31.88L7.09711 32.7862L7.10967 32.792L7.12239 32.7976L7.52 31.88ZM6.28 31.36L5.92285 32.2941L5.92888 32.2963L6.28 31.36ZM4.9 30.82L4.49636 31.7349L4.51237 31.742L4.52861 31.7485L4.9 30.82ZM3.66 30.08L3.02526 30.8527L3.03365 30.8596L3.04218 30.8663L3.66 30.08ZM2.74 28.96L1.84557 29.4072L1.85356 29.4232L1.8621 29.4389L2.74 28.96ZM2.66 26.08L1.76557 25.6328L1.75909 25.6457L1.75299 25.6589L2.66 26.08ZM3.44 25.1L2.81166 24.3221L2.80418 24.3281L2.79681 24.3343L3.44 25.1ZM4.68 24.44L4.99623 25.3887L5.00388 25.3861L5.01149 25.3835L4.68 24.44ZM7.38 24.2L7.42344 23.2009H7.42344L7.38 24.2ZM9.18 24.08L9.52571 25.0183L9.53862 25.0136L9.55139 25.0085L9.18 24.08ZM10 23.52L10.7176 22.8235L10.0277 22.1127L9.31035 22.7959L10 23.52ZM10.66 24.2L11.4651 24.7932L11.9675 24.1113L11.3776 23.5035L10.66 24.2ZM9.5 25.14L9.14887 24.2037L9.1387 24.2075L9.12861 24.2115L9.5 25.14ZM8.86 25.3L8.91873 26.2983L8.94786 26.2966L8.97684 26.2931L8.86 25.3ZM7.24 25.3L7.27701 24.3007H7.27701L7.24 25.3ZM6.12 24.28C5.16871 24.28 4.2801 24.5104 3.60848 25.119L4.95152 26.601C5.13323 26.4363 5.47129 26.28 6.12 26.28V24.28ZM3.6215 25.1074C2.9809 25.6679 2.64 26.4076 2.64 27.26H4.64C4.64 26.9924 4.72576 26.7987 4.9385 26.6126L3.6215 25.1074ZM2.64 27.26C2.64 27.8758 2.75633 28.4687 3.04749 28.9886L4.79251 28.0114C4.71034 27.8647 4.64 27.6308 4.64 27.26H2.64ZM3.04749 28.9886C3.30331 29.4454 3.6447 29.8331 4.06561 30.1442L5.25439 28.5358C5.06197 28.3936 4.91002 28.2212 4.79251 28.0114L3.04749 28.9886ZM4.06561 30.1442C4.44382 30.4237 4.86292 30.6559 5.31765 30.844L6.08235 28.996C5.76375 28.8641 5.48952 28.7096 5.25439 28.5358L4.06561 30.1442ZM5.32861 30.8485C5.7446 31.0149 6.17341 31.1739 6.61492 31.3257L7.26508 29.4343C6.85326 29.2928 6.4554 29.1451 6.07139 28.9915L5.32861 30.8485ZM6.60718 31.323C7.02237 31.4695 7.44765 31.648 7.8831 31.8595L8.7569 30.0605C8.25902 29.8187 7.7643 29.6105 7.27282 29.437L6.60718 31.323ZM7.90424 31.8695C8.28209 32.0422 8.61729 32.261 8.91398 32.5259L10.246 31.0341C9.79605 30.6323 9.29124 30.3045 8.73576 30.0505L7.90424 31.8695ZM8.92921 32.5393C9.19272 32.7651 9.41039 33.0467 9.58049 33.3969L11.3795 32.5231C11.0963 31.94 10.7139 31.4349 10.2308 31.0207L8.92921 32.5393ZM9.59621 33.4279C9.74184 33.703 9.84 34.0862 9.84 34.62H11.84C11.84 33.8471 11.6982 33.1237 11.3638 32.4921L9.59621 33.4279ZM9.84 34.62C9.84 35.1379 9.73485 35.5065 9.57807 35.773L11.3019 36.787C11.6785 36.1469 11.84 35.4088 11.84 34.62H9.84ZM9.57807 35.773C9.38839 36.0954 9.14037 36.3579 8.8253 36.568L9.9347 38.2321C10.4996 37.8554 10.9583 37.3712 11.3019 36.787L9.57807 35.773ZM8.83134 36.564C8.51985 36.7684 8.14433 36.9249 7.69047 37.0222L8.10953 38.9778C8.77567 38.8351 9.38682 38.5916 9.92866 38.236L8.83134 36.564ZM7.66838 37.0272C7.18571 37.1421 6.69016 37.2 6.18 37.2V39.2C6.84317 39.2 7.49429 39.1245 8.13162 38.9728L7.66838 37.0272ZM6.18 37.2C5.42321 37.2 4.71029 37.0781 4.03532 36.8379L3.36468 38.7221C4.26304 39.0419 5.20346 39.2 6.18 39.2V37.2ZM4.05465 36.845C3.3511 36.5781 2.76818 36.2655 2.29385 35.9154L1.10615 37.5246C1.75182 38.0011 2.50223 38.3952 3.34535 38.715L4.05465 36.845ZM2.52404 37.2865L3.18404 36.3265L1.53596 35.1935L0.875958 36.1535L2.52404 37.2865ZM1.82601 36.6055C2.09928 36.7781 2.39119 36.9488 2.70115 37.1179L3.65885 35.3621C3.38214 35.2112 3.12739 35.0619 2.89399 34.9145L1.82601 36.6055ZM2.73279 37.1344C3.0531 37.2946 3.39192 37.4458 3.74861 37.5885L4.49139 35.7315C4.18141 35.6075 3.89356 35.4787 3.62721 35.3456L2.73279 37.1344ZM3.76102 37.5933C4.15761 37.7459 4.56766 37.8672 4.99047 37.9578L5.40953 36.0022C5.08567 35.9328 4.77573 35.8408 4.47898 35.7267L3.76102 37.5933ZM4.99047 37.9578C5.44016 38.0542 5.911 38.1 6.4 38.1V36.1C6.03566 36.1 5.7065 36.0658 5.40953 36.0022L4.99047 37.9578ZM6.4 38.1C6.88932 38.1 7.36418 38.0541 7.82261 37.9593L7.4174 36.0007C7.10248 36.0659 6.76402 36.1 6.4 36.1V38.1ZM7.85464 37.9521C8.33326 37.8366 8.77824 37.6573 9.17688 37.4037L8.10313 35.7163C7.91509 35.836 7.68008 35.9368 7.38536 36.0079L7.85464 37.9521ZM9.20334 37.3862C9.62231 37.1006 9.96118 36.7333 10.2106 36.2921L8.46944 35.3079C8.37216 35.4801 8.24436 35.6194 8.07666 35.7338L9.20334 37.3862ZM10.2193 36.2763C10.4911 35.7745 10.6 35.2072 10.6 34.62H8.6C8.6 34.9661 8.53556 35.1855 8.46071 35.3237L10.2193 36.2763ZM10.6 34.62C10.6 34.0121 10.4816 33.4276 10.1925 32.9114L8.44749 33.8886C8.53174 34.039 8.6 34.2679 8.6 34.62H10.6ZM10.2005 32.9259C9.94908 32.459 9.61296 32.0586 9.19631 31.7325L7.96369 33.3075C8.16038 33.4614 8.31759 33.6476 8.43953 33.8741L10.2005 32.9259ZM9.21688 31.749C8.83116 31.4304 8.39566 31.1696 7.91761 30.9624L7.12239 32.7976C7.44434 32.9371 7.71551 33.1029 7.94312 33.291L9.21688 31.749ZM7.94289 30.9738C7.51862 30.7758 7.08131 30.5925 6.63112 30.4237L5.92888 32.2963C6.33202 32.4475 6.72138 32.6108 7.09711 32.7862L7.94289 30.9738ZM6.63714 30.4259C6.18874 30.2545 5.73349 30.0764 5.27139 29.8915L4.52861 31.7485C4.99985 31.937 5.4646 32.1188 5.92286 32.2941L6.63714 30.4259ZM5.30364 29.9051C4.92346 29.7374 4.58261 29.5332 4.27782 29.2937L3.04218 30.8663C3.48406 31.2135 3.96988 31.5026 4.49636 31.7349L5.30364 29.9051ZM4.29474 29.3073C4.02427 29.0851 3.79879 28.8128 3.6179 28.4811L1.8621 29.4389C2.16121 29.9872 2.54906 30.4616 3.02526 30.8527L4.29474 29.3073ZM3.63443 28.5128C3.49674 28.2374 3.4 27.8354 3.4 27.26H1.4C1.4 28.0446 1.52993 28.7759 1.84557 29.4072L3.63443 28.5128ZM3.4 27.26C3.4 26.9915 3.4552 26.7419 3.56701 26.5011L1.75299 25.6589C1.51814 26.1647 1.4 26.7018 1.4 27.26H3.4ZM3.55443 26.5272C3.67736 26.2813 3.8499 26.0617 4.08319 25.8657L2.79681 24.3343C2.36344 24.6983 2.01597 25.132 1.76557 25.6328L3.55443 26.5272ZM4.06834 25.8779C4.31031 25.6825 4.61443 25.5159 4.99623 25.3887L4.36377 23.4913C3.78557 23.6841 3.26302 23.9575 2.81166 24.3221L4.06834 25.8779ZM5.01149 25.3835C5.38388 25.2526 5.81651 25.18 6.32 25.18V23.18C5.62349 23.18 4.96279 23.2807 4.34851 23.4965L5.01149 25.3835ZM6.32 25.18C6.70958 25.18 7.04793 25.1865 7.33656 25.1991L7.42344 23.2009C7.09874 23.1868 6.73042 23.18 6.32 23.18V25.18ZM7.33656 25.1991C7.64978 25.2127 7.91265 25.22 8.12 25.22V23.22C7.95402 23.22 7.72355 23.214 7.42344 23.2009L7.33656 25.1991ZM8.12 25.22C8.62239 25.22 9.11155 25.1709 9.52571 25.0183L8.83429 23.1417C8.74178 23.1757 8.52428 23.22 8.12 23.22V25.22ZM9.55139 25.0085C9.96935 24.8413 10.3475 24.57 10.6897 24.2441L9.31035 22.7959C9.09247 23.0034 8.92398 23.1054 8.80861 23.1515L9.55139 25.0085ZM9.28242 24.2165L9.94242 24.8965L11.3776 23.5035L10.7176 22.8235L9.28242 24.2165ZM9.85494 23.6068C9.70548 23.8096 9.57933 23.9373 9.48218 24.0137L10.7178 25.5863C10.994 25.3693 11.2412 25.097 11.4651 24.7932L9.85494 23.6068ZM9.48218 24.0137C9.37278 24.0996 9.26217 24.1612 9.14887 24.2037L9.85113 26.0763C10.1645 25.9588 10.4539 25.7937 10.7178 25.5863L9.48218 24.0137ZM9.12861 24.2115C9.01496 24.257 8.88769 24.2898 8.74316 24.3068L8.97684 26.2931C9.28564 26.2568 9.58504 26.183 9.87139 26.0685L9.12861 24.2115ZM8.80128 24.3017C8.59718 24.3137 8.37035 24.32 8.12 24.32V26.32C8.40298 26.32 8.66949 26.3129 8.91873 26.2983L8.80128 24.3017ZM8.12 24.32C7.91065 24.32 7.63094 24.3138 7.27701 24.3007L7.20299 26.2993C7.56907 26.3129 7.87601 26.32 8.12 26.32V24.32ZM7.27701 24.3007C6.90382 24.2869 6.51812 24.28 6.12 24.28V26.28C6.49522 26.28 6.85618 26.2865 7.20299 26.2993L7.27701 24.3007ZM14.2445 31.16H13.2445V32.16H14.2445V31.16ZM14.7245 28.38L13.7882 28.0289L14.7245 28.38ZM16.0645 26.16L16.8024 26.8351L16.8094 26.8272L16.0645 26.16ZM18.1245 24.66L17.7198 23.7456L17.7142 23.7481L18.1245 24.66ZM24.0445 24.88L23.469 25.6978L24.0445 24.88ZM24.8845 27.94L25.7711 28.4026L25.7751 28.3949L25.779 28.3872L24.8845 27.94ZM24.1045 28.76L24.6518 29.597L24.6592 29.5921L24.1045 28.76ZM22.7645 29.3L22.9789 30.2767L22.9902 30.2743L23.0015 30.2715L22.7645 29.3ZM15.6445 29.48V28.48H14.849L14.6701 29.2551L15.6445 29.48ZM15.4645 31.16V32.16H16.4645V31.16H15.4645ZM17.8445 26.08L17.2808 25.254L17.2746 25.2583L17.8445 26.08ZM15.9645 28.44L15.0448 28.0476L14.4506 29.44H15.9645V28.44ZM22.2845 28.34L22.1201 27.3536L22.1146 27.3545L22.2845 28.34ZM23.2245 28.04L22.7389 27.1658L22.7281 27.1718L22.7175 27.1781L23.2245 28.04ZM23.7245 27.56L24.619 28.0072L24.625 27.9951L24.6307 27.9829L23.7245 27.56ZM23.0845 25.64L23.5586 24.7595L23.0845 25.64ZM17.4245 37.66L16.9773 38.5545L16.9839 38.5577L17.4245 37.66ZM15.6245 36.18L14.8165 36.7692L14.8235 36.7787L14.8307 36.7881L15.6245 36.18ZM14.5845 33.94L13.6171 34.193L13.618 34.1967L14.5845 33.94ZM14.2445 31.16V30.16H13.2445V31.16H14.2445ZM15.4645 31.16H16.4645V30.16H15.4645V31.16ZM15.7445 33.58L14.7754 33.8267L14.7781 33.8372L14.781 33.8476L15.7445 33.58ZM16.6045 35.44L15.7922 36.0232L15.7971 36.03L15.8021 36.0367L16.6045 35.44ZM18.0245 36.66L17.5605 37.5459L17.5691 37.5502L18.0245 36.66ZM21.2845 36.94L21.5201 37.9118L21.5303 37.9094L21.5404 37.9067L21.2845 36.94ZM22.5645 36.52L22.2035 35.5874L22.1931 35.5915L22.5645 36.52ZM23.6845 36.02L24.1459 36.9072L24.1596 36.9001L24.1731 36.8925L23.6845 36.02ZM24.5045 35.54L25.3704 35.0397L24.8525 34.1433L23.9745 34.692L24.5045 35.54ZM25.0245 36.44L25.6492 37.2209L26.3204 36.6839L25.8904 35.9397L25.0245 36.44ZM24.2045 37L24.7191 37.8575L24.7286 37.8517L24.2045 37ZM23.0445 37.58L23.4111 38.5104L23.4231 38.5056L23.4351 38.5006L23.0445 37.58ZM21.6045 38.02L21.3797 37.0456L21.3741 37.0469L21.6045 38.02ZM15.2445 31.16C15.2445 30.2683 15.3869 29.4618 15.6609 28.7311L13.7882 28.0289C13.4222 29.0049 13.2445 30.0517 13.2445 31.16H15.2445ZM15.6609 28.7311C15.9393 27.9886 16.3214 27.3607 16.8023 26.835L15.3267 25.485C14.661 26.2126 14.1498 27.0647 13.7882 28.0289L15.6609 28.7311ZM16.8094 26.8272C17.2875 26.2935 17.8595 25.8758 18.5349 25.5719L17.7142 23.7481C16.7896 24.1642 15.9882 24.7465 15.3197 25.4928L16.8094 26.8272ZM18.5293 25.5744C19.2035 25.276 19.9573 25.12 20.8045 25.12V23.12C19.7051 23.12 18.6722 23.324 17.7198 23.7456L18.5293 25.5744ZM20.8045 25.12C22.1578 25.12 22.9941 25.3636 23.469 25.6978L24.62 24.0622C23.655 23.3831 22.3313 23.12 20.8045 23.12V25.12ZM23.469 25.6978C23.938 26.0278 24.1245 26.4035 24.1245 26.9H26.1245C26.1245 25.7165 25.591 24.7455 24.62 24.0622L23.469 25.6978ZM24.1245 26.9C24.1245 27.125 24.0776 27.3177 23.9901 27.4928L25.779 28.3872C26.0114 27.9223 26.1245 27.4216 26.1245 26.9H24.1245ZM23.9979 27.4774C23.9329 27.6021 23.8044 27.7582 23.5498 27.9279L24.6592 29.5921C25.1246 29.2818 25.5161 28.8913 25.7711 28.4026L23.9979 27.4774ZM23.5573 27.923C23.3329 28.0697 23.0008 28.2131 22.5276 28.3285L23.0015 30.2715C23.6216 30.1203 24.1828 29.9036 24.6518 29.597L23.5573 27.923ZM22.5501 28.3233C22.0938 28.4234 21.5162 28.48 20.8045 28.48V30.48C21.6129 30.48 22.3419 30.4166 22.9789 30.2767L22.5501 28.3233ZM20.8045 28.48H15.6445V30.48H20.8045V28.48ZM14.6701 29.2551C14.5312 29.8573 14.4645 30.4935 14.4645 31.16H16.4645C16.4645 30.6265 16.5179 30.1427 16.6189 29.7049L14.6701 29.2551ZM15.4645 30.16H14.2445V32.16H15.4645V30.16ZM20.8045 24.22C19.494 24.22 18.3056 24.5545 17.2808 25.254L18.4083 26.9059C19.0634 26.4588 19.8484 26.22 20.8045 26.22V24.22ZM17.2746 25.2583C16.2808 25.9476 15.5391 26.8889 15.0448 28.0476L16.8843 28.8324C17.2433 27.9911 17.755 27.3591 18.4144 26.9017L17.2746 25.2583ZM15.9645 29.44H20.8045V27.44H15.9645V29.44ZM20.8045 29.44C21.435 29.44 21.9905 29.4054 22.4544 29.3255L22.1146 27.3545C21.8052 27.4079 21.374 27.44 20.8045 27.44V29.44ZM22.4489 29.3264C22.9113 29.2493 23.358 29.1217 23.7316 28.9019L22.7175 27.1781C22.6377 27.225 22.4577 27.2973 22.1201 27.3536L22.4489 29.3264ZM23.7102 28.9142C24.0715 28.7134 24.411 28.4231 24.619 28.0072L22.8301 27.1128C22.8514 27.0702 22.8576 27.0999 22.7389 27.1658L23.7102 28.9142ZM24.6307 27.9829C24.7911 27.6392 24.8645 27.2732 24.8645 26.9H22.8645C22.8645 27.0068 22.8446 27.0808 22.8183 27.1371L24.6307 27.9829ZM24.8645 26.9C24.8645 26.4595 24.7603 26.0271 24.5198 25.6386C24.2811 25.253 23.9426 24.9663 23.5586 24.7595L22.6104 26.5205C22.7464 26.5937 22.798 26.657 22.8193 26.6914C22.8388 26.7229 22.8645 26.7805 22.8645 26.9H24.8645ZM23.5586 24.7595C22.8246 24.3643 21.8695 24.22 20.8045 24.22V26.22C21.7395 26.22 22.3045 26.3557 22.6104 26.5205L23.5586 24.7595ZM20.0045 37.2C19.1393 37.2 18.4358 37.0424 17.8652 36.7623L16.9839 38.5577C17.8799 38.9976 18.8964 39.2 20.0045 39.2V37.2ZM17.8717 36.7656C17.2848 36.4721 16.8042 36.0756 16.4184 35.5719L14.8307 36.7881C15.4048 37.5377 16.1243 38.1279 16.9773 38.5544L17.8717 36.7656ZM16.4325 35.5908C16.0467 35.0617 15.7495 34.4306 15.551 33.6833L13.618 34.1967C13.8729 35.156 14.269 36.0183 14.8165 36.7692L16.4325 35.5908ZM15.552 33.687C15.349 32.9108 15.2445 32.0698 15.2445 31.16H13.2445C13.2445 32.2235 13.3667 33.2359 13.6171 34.193L15.552 33.687ZM14.2445 32.16H15.4645V30.16H14.2445V32.16ZM14.4645 31.16C14.4645 32.11 14.5652 33.0009 14.7754 33.8267L16.7136 33.3333C16.5505 32.6924 16.4645 31.97 16.4645 31.16H14.4645ZM14.781 33.8476C15.0073 34.6623 15.3399 35.3932 15.7922 36.0232L17.4169 34.8568C17.1225 34.4468 16.8818 33.9377 16.708 33.3124L14.781 33.8476ZM15.8021 36.0367C16.2761 36.6742 16.864 37.181 17.5605 37.5458L18.4885 35.7742C18.065 35.5523 17.7063 35.2458 17.407 34.8433L15.8021 36.0367ZM17.5691 37.5502C18.3043 37.9264 19.1248 38.1 20.0045 38.1V36.1C19.3909 36.1 18.8914 35.9803 18.48 35.7698L17.5691 37.5502ZM20.0045 38.1C20.5044 38.1 21.0103 38.0355 21.5201 37.9118L21.0489 35.9682C20.6788 36.0579 20.3314 36.1 20.0045 36.1V38.1ZM21.5404 37.9067C22.0296 37.7772 22.4951 37.6248 22.9359 37.4485L22.1931 35.5915C21.834 35.7352 21.4461 35.8628 21.0286 35.9733L21.5404 37.9067ZM22.9255 37.4526C23.3672 37.2816 23.7748 37.1002 24.1459 36.9072L23.2232 35.1328C22.9276 35.2865 22.5885 35.4384 22.2035 35.5874L22.9255 37.4526ZM24.1731 36.8925C24.5141 36.7016 24.8026 36.533 25.0345 36.388L23.9745 34.692C23.7798 34.8137 23.5216 34.9651 23.1959 35.1475L24.1731 36.8925ZM23.6387 36.0403L24.1587 36.9403L25.8904 35.9397L25.3704 35.0397L23.6387 36.0403ZM24.3998 35.6591C24.2448 35.7831 24.0099 35.9456 23.6804 36.1483L24.7286 37.8517C25.0925 37.6278 25.4042 37.4169 25.6492 37.2209L24.3998 35.6591ZM23.69 36.1425C23.4043 36.3139 23.0605 36.4869 22.654 36.6594L23.4351 38.5006C23.9085 38.2997 24.3381 38.0861 24.719 37.8575L23.69 36.1425ZM22.678 36.6496C22.2895 36.8026 21.8575 36.9354 21.3797 37.0456L21.8294 38.9944C22.3916 38.8646 22.9196 38.704 23.4111 38.5104L22.678 36.6496ZM21.3741 37.0469C20.9484 37.1477 20.4927 37.2 20.0045 37.2V39.2C20.6363 39.2 21.2474 39.1323 21.835 38.9931L21.3741 37.0469ZM39.0356 24.32H40.0356V23.32H39.0356V24.32ZM39.0356 38V39H40.0356V38H39.0356ZM37.8156 38H36.8156V39H37.8156V38ZM37.8156 31.46H38.8156V30.46H37.8156V31.46ZM30.4356 31.46V30.46H29.4356V31.46H30.4356ZM30.4356 38V39H31.4356V38H30.4356ZM29.2156 38H28.2156V39H29.2156V38ZM29.2156 24.32V23.32H28.2156V24.32H29.2156ZM30.4356 24.32H31.4356V23.32H30.4356V24.32ZM30.4356 30.32H29.4356V31.32H30.4356V30.32ZM37.8156 30.32V31.32H38.8156V30.32H37.8156ZM37.8156 24.32V23.32H36.8156V24.32H37.8156ZM38.0356 24.32V38H40.0356V24.32H38.0356ZM39.0356 37H37.8156V39H39.0356V37ZM38.8156 38V31.46H36.8156V38H38.8156ZM37.8156 30.46H30.4356V32.46H37.8156V30.46ZM29.4356 31.46V38H31.4356V31.46H29.4356ZM30.4356 37H29.2156V39H30.4356V37ZM30.2156 38V24.32H28.2156V38H30.2156ZM29.2156 25.32H30.4356V23.32H29.2156V25.32ZM29.4356 24.32V30.32H31.4356V24.32H29.4356ZM30.4356 31.32H37.8156V29.32H30.4356V31.32ZM38.8156 30.32V24.32H36.8156V30.32H38.8156ZM37.8156 25.32H39.0356V23.32H37.8156V25.32ZM57.6289 24.2L58.4409 24.7836L58.9294 24.1041L58.3465 23.5035L57.6289 24.2ZM56.4689 25.12L56.8171 26.0574L56.8288 26.0531L56.8403 26.0485L56.4689 25.12ZM55.0489 25.42L54.9934 24.4215L53.1278 24.5252L54.2489 26.02L55.0489 25.42ZM55.6889 26.4L54.8262 26.9057L54.8366 26.9235L54.8477 26.9408L55.6889 26.4ZM56.3489 27.68L55.4258 28.0646L56.3489 27.68ZM56.8289 29.28L55.8492 29.4804L55.8519 29.4935L55.8549 29.5065L56.8289 29.28ZM56.5489 33.96L57.4852 34.3111L57.487 34.3064L56.5489 33.96ZM55.1689 36.18L54.4466 35.4884L54.4389 35.4966L55.1689 36.18ZM53.0489 37.66L52.6496 36.7432L53.0489 37.66ZM47.5089 37.66L47.1096 38.5768L47.5089 37.66ZM45.3689 36.18L44.6318 36.8557L44.6391 36.8637L44.6466 36.8716L45.3689 36.18ZM44.0089 33.94L44.9452 33.5889L44.0089 33.94ZM44.0089 28.38L44.9452 28.7311L44.947 28.7264L44.0089 28.38ZM45.3689 26.14L44.6466 25.4484L44.6389 25.4566L45.3689 26.14ZM47.5089 24.66L47.1096 23.7432L47.5089 24.66ZM52.5889 24.22L52.4932 25.2154L52.495 25.2156L52.5889 24.22ZM55.9689 24.12L56.2949 25.0654L55.9689 24.12ZM56.9689 23.52L57.6865 22.8235L56.9966 22.1127L56.2793 22.7959L56.9689 23.52ZM55.5289 28.92L54.5711 29.2074L54.5727 29.2127L55.5289 28.92ZM54.8289 27.2L53.9393 27.6568L53.9468 27.6714L53.9548 27.6856L54.8289 27.2ZM54.0689 26.02L53.2979 26.6569L53.3049 26.6653L53.3121 26.6736L54.0689 26.02ZM53.5289 25.4L54.236 24.6929L53.9652 24.4221L53.5829 24.4015L53.5289 25.4ZM51.9689 25.3L51.8694 26.295L51.8827 26.2964L51.8959 26.2973L51.9689 25.3ZM48.0089 25.66L48.3897 26.5847L48.3974 26.5815L48.405 26.5782L48.0089 25.66ZM46.2689 26.88L47.0038 27.5583L47.0122 27.549L46.2689 26.88ZM45.1489 28.76L46.0867 29.1073L46.0887 29.1017L45.1489 28.76ZM45.1489 33.58L44.2091 33.9217L44.2112 33.9273L45.1489 33.58ZM46.2689 35.44L45.534 36.1183L45.5434 36.1283L46.2689 35.44ZM48.0289 36.66L48.425 35.7418L48.0289 36.66ZM52.5489 36.68L52.9297 37.6047L52.9374 37.6015L52.945 37.5982L52.5489 36.68ZM54.2889 35.46L53.5548 34.781L53.5541 34.7817L54.2889 35.46ZM55.4289 33.58L56.3667 33.9273L56.3687 33.9217L55.4289 33.58ZM56.8169 23.6164C56.616 23.8959 56.3792 24.0788 56.0975 24.1915L56.8403 26.0485C57.4919 25.7878 58.0285 25.3575 58.4409 24.7836L56.8169 23.6164ZM56.1207 24.1826C55.7447 24.3223 55.3698 24.4006 54.9934 24.4215L55.1044 26.4185C55.688 26.386 56.2598 26.2644 56.8171 26.0574L56.1207 24.1826ZM54.2489 26.02C54.4201 26.2482 54.6126 26.5413 54.8262 26.9057L56.5516 25.8943C56.3119 25.4853 56.0778 25.1251 55.8489 24.82L54.2489 26.02ZM54.8477 26.9408C55.051 27.257 55.2447 27.63 55.4258 28.0646L57.272 27.2954C57.0531 26.77 56.8068 26.2897 56.5301 25.8592L54.8477 26.9408ZM55.4258 28.0646C55.5977 28.477 55.7402 28.9475 55.8492 29.4804L57.8086 29.0796C57.6776 28.4391 57.5001 27.843 57.272 27.2954L55.4258 28.0646ZM55.8549 29.5065C55.9685 29.9952 56.0289 30.5448 56.0289 31.16H58.0289C58.0289 30.4152 57.9559 29.7115 57.8029 29.0535L55.8549 29.5065ZM56.0289 31.16C56.0289 32.0516 55.8866 32.8667 55.6108 33.6136L57.487 34.3064C57.8512 33.32 58.0289 32.2684 58.0289 31.16H56.0289ZM55.6126 33.6089C55.3377 34.3419 54.9482 34.9645 54.4466 35.4884L55.8912 36.8716C56.5896 36.1422 57.1201 35.2847 57.4852 34.3111L55.6126 33.6089ZM54.4389 35.4966C53.9501 36.0187 53.3577 36.4348 52.6496 36.7432L53.4482 38.5768C54.3934 38.1652 55.2144 37.5946 55.8989 36.8634L54.4389 35.4966ZM52.6496 36.7432C51.9637 37.0419 51.1819 37.2 50.2889 37.2V39.2C51.4226 39.2 52.4808 38.9981 53.4482 38.5768L52.6496 36.7432ZM50.2889 37.2C49.3806 37.2 48.5926 37.0412 47.9082 36.7432L47.1096 38.5768C48.0786 38.9988 49.1438 39.2 50.2889 39.2V37.2ZM47.9082 36.7432C47.1982 36.434 46.5959 36.0156 46.0912 35.4884L44.6466 36.8716C45.3419 37.5978 46.1663 38.166 47.1096 38.5768L47.9082 36.7432ZM46.1061 35.5043C45.6102 34.9634 45.2225 34.3283 44.9452 33.5889L43.0726 34.2911C43.4353 35.2584 43.9543 36.1166 44.6318 36.8557L46.1061 35.5043ZM44.9452 33.5889C44.6712 32.8582 44.5289 32.0517 44.5289 31.16H42.5289C42.5289 32.2683 42.7066 33.3151 43.0726 34.2911L44.9452 33.5889ZM44.5289 31.16C44.5289 30.2683 44.6712 29.4618 44.9452 28.7311L43.0726 28.0289C42.7066 29.0049 42.5289 30.0517 42.5289 31.16H44.5289ZM44.947 28.7264C45.2244 27.9752 45.6102 27.3455 46.0989 26.8234L44.6389 25.4566C43.9543 26.1878 43.4334 27.0515 43.0708 28.0336L44.947 28.7264ZM46.0912 26.8316C46.5959 26.3044 47.1982 25.886 47.9082 25.5768L47.1096 23.7432C46.1663 24.154 45.3419 24.7222 44.6466 25.4484L46.0912 26.8316ZM47.9082 25.5768C48.5926 25.2788 49.3806 25.12 50.2889 25.12V23.12C49.1438 23.12 48.0786 23.3212 47.1096 23.7432L47.9082 25.5768ZM50.2889 25.12C51.1032 25.12 51.8373 25.1523 52.4932 25.2154L52.6846 23.2246C51.9538 23.1543 51.1546 23.12 50.2889 23.12V25.12ZM52.495 25.2156C53.2289 25.2848 53.9271 25.32 54.5889 25.32V23.32C53.9974 23.32 53.3623 23.2885 52.6828 23.2244L52.495 25.2156ZM54.5889 25.32C55.2013 25.32 55.777 25.244 56.2949 25.0654L55.6429 23.1746C55.3875 23.2627 55.0432 23.32 54.5889 23.32V25.32ZM56.2949 25.0654C56.8093 24.888 57.2687 24.6155 57.6586 24.2441L56.2793 22.7959C56.1091 22.9579 55.9019 23.0853 55.6429 23.1746L56.2949 25.0654ZM56.2513 24.2165L56.9113 24.8965L58.3465 23.5035L57.6865 22.8235L56.2513 24.2165ZM56.8289 31.16C56.8289 30.2426 56.7199 29.3943 56.4851 28.6273L54.5727 29.2127C54.7379 29.7524 54.8289 30.3974 54.8289 31.16H56.8289ZM56.4867 28.6327C56.2713 27.9144 56.0125 27.2713 55.7031 26.7144L53.9548 27.6856C54.1786 28.0887 54.3865 28.5922 54.5711 29.2073L56.4867 28.6327ZM55.7185 26.7432C55.443 26.2068 55.1479 25.7394 54.8257 25.3664L53.3121 26.6736C53.4966 26.8872 53.7081 27.2066 53.9393 27.6568L55.7185 26.7432ZM54.8399 25.3831C54.5886 25.079 54.3807 24.8376 54.236 24.6929L52.8218 26.1071C52.8904 26.1757 53.0425 26.3477 53.2979 26.6569L54.8399 25.3831ZM53.5829 24.4015C53.0965 24.3752 52.5829 24.3423 52.0419 24.3027L51.8959 26.2973C52.4483 26.3377 52.9746 26.3715 53.4749 26.3985L53.5829 24.4015ZM52.0684 24.305C51.4984 24.248 50.8983 24.22 50.2689 24.22V26.22C50.8395 26.22 51.3728 26.2454 51.8694 26.295L52.0684 24.305ZM50.2689 24.22C49.3219 24.22 48.4317 24.3885 47.6128 24.7418L48.405 26.5782C48.9461 26.3448 49.5626 26.22 50.2689 26.22V24.22ZM47.6282 24.7353C46.8132 25.0709 46.1083 25.5636 45.5256 26.211L47.0122 27.549C47.3895 27.1298 47.8446 26.8091 48.3897 26.5847L47.6282 24.7353ZM45.5341 26.2017C44.9553 26.8288 44.5164 27.5731 44.2091 28.4183L46.0887 29.1017C46.3147 28.4802 46.6225 27.9712 47.0037 27.5583L45.5341 26.2017ZM44.2112 28.4127C43.8978 29.2588 43.7489 30.1785 43.7489 31.16H45.7489C45.7489 30.3815 45.8667 29.7012 46.0867 29.1073L44.2112 28.4127ZM43.7489 31.16C43.7489 32.1418 43.8979 33.0658 44.2091 33.9217L46.0887 33.2383C45.8666 32.6275 45.7489 31.9382 45.7489 31.16H43.7489ZM44.2112 33.9273C44.5193 34.7593 44.9582 35.4944 45.5341 36.1183L47.0037 34.7617C46.6196 34.3456 46.3118 33.8407 46.0867 33.2327L44.2112 33.9273ZM45.5434 36.1283C46.133 36.7497 46.8328 37.2331 47.6328 37.5782L48.425 35.7418C47.865 35.5002 47.3915 35.1703 46.9944 34.7517L45.5434 36.1283ZM47.6328 37.5782C48.4517 37.9314 49.3419 38.1 50.2889 38.1V36.1C49.5826 36.1 48.9661 35.9752 48.425 35.7418L47.6328 37.5782ZM50.2889 38.1C51.23 38.1 52.1148 37.9402 52.9297 37.6047L52.1682 35.7553C51.623 35.9798 51.0011 36.1 50.2889 36.1V38.1ZM52.945 37.5982C53.7473 37.2521 54.4444 36.7658 55.0237 36.1383L53.5541 34.7817C53.1734 35.1942 52.7105 35.5212 52.1528 35.7618L52.945 37.5982ZM55.023 36.139C55.6103 35.5041 56.0571 34.7631 56.3667 33.9273L54.4912 33.2327C54.2674 33.8369 53.9542 34.3492 53.5548 34.781L55.023 36.139ZM56.3687 33.9217C56.6799 33.0658 56.8289 32.1418 56.8289 31.16H54.8289C54.8289 31.9382 54.7112 32.6275 54.4891 33.2383L56.3687 33.9217ZM74.9273 24.2L75.7394 24.7836L76.2278 24.1041L75.6449 23.5035L74.9273 24.2ZM73.7673 25.12L74.1155 26.0574L74.1272 26.0531L74.1387 26.0485L73.7673 25.12ZM72.3473 25.42L72.2919 24.4215L70.4262 24.5252L71.5473 26.02L72.3473 25.42ZM72.9873 26.4L72.1246 26.9057L72.135 26.9235L72.1462 26.9408L72.9873 26.4ZM73.6473 27.68L72.7243 28.0646L73.6473 27.68ZM74.1273 29.28L73.1476 29.4804L73.1503 29.4935L73.1533 29.5065L74.1273 29.28ZM73.8473 33.96L74.7837 34.3111L74.7854 34.3064L73.8473 33.96ZM72.4673 36.18L71.745 35.4884L71.7373 35.4966L72.4673 36.18ZM70.3473 37.66L69.9481 36.7432L70.3473 37.66ZM64.8073 37.66L64.4081 38.5768L64.8073 37.66ZM62.6673 36.18L61.9302 36.8557L61.9375 36.8637L61.945 36.8716L62.6673 36.18ZM61.3073 33.94L62.2437 33.5889L61.3073 33.94ZM61.3073 28.38L62.2437 28.7311L62.2454 28.7264L61.3073 28.38ZM62.6673 26.14L61.945 25.4484L61.9373 25.4566L62.6673 26.14ZM64.8073 24.66L64.4081 23.7432L64.8073 24.66ZM69.8873 24.22L69.7916 25.2154L69.7934 25.2156L69.8873 24.22ZM73.2673 24.12L73.5933 25.0654H73.5933L73.2673 24.12ZM74.2673 23.52L74.9849 22.8235L74.295 22.1127L73.5777 22.7959L74.2673 23.52ZM72.8273 28.92L71.8695 29.2074L71.8711 29.2127L72.8273 28.92ZM72.1273 27.2L71.2378 27.6568L71.2452 27.6714L71.2532 27.6856L72.1273 27.2ZM71.3673 26.02L70.5964 26.6569L70.6034 26.6653L70.6105 26.6736L71.3673 26.02ZM70.8273 25.4L71.5344 24.6929L71.2637 24.4221L70.8813 24.4015L70.8273 25.4ZM69.2673 25.3L69.1678 26.295L69.1811 26.2964L69.1944 26.2973L69.2673 25.3ZM65.3073 25.66L65.6881 26.5847L65.6958 26.5815L65.7034 26.5782L65.3073 25.66ZM63.5673 26.88L64.3022 27.5583L64.3106 27.549L63.5673 26.88ZM62.4473 28.76L63.3851 29.1073L63.3871 29.1017L62.4473 28.76ZM62.4473 33.58L61.5075 33.9217L61.5096 33.9273L62.4473 33.58ZM63.5673 35.44L62.8325 36.1183L62.8419 36.1283L63.5673 35.44ZM65.3273 36.66L65.7234 35.7418L65.3273 36.66ZM69.8473 36.68L70.2281 37.6047L70.2358 37.6015L70.2434 37.5982L69.8473 36.68ZM71.5873 35.46L70.8532 34.781L70.8525 34.7817L71.5873 35.46ZM72.7273 33.58L73.6651 33.9273L73.6671 33.9217L72.7273 33.58ZM74.1153 23.6164C73.9144 23.8959 73.6777 24.0788 73.396 24.1915L74.1387 26.0485C74.7903 25.7878 75.3269 25.3575 75.7394 24.7836L74.1153 23.6164ZM73.4192 24.1826C73.0431 24.3223 72.6683 24.4006 72.2919 24.4215L72.4028 26.4185C72.9864 26.386 73.5583 26.2644 74.1155 26.0574L73.4192 24.1826ZM71.5473 26.02C71.7185 26.2482 71.911 26.5413 72.1246 26.9057L73.85 25.8943C73.6103 25.4853 73.3762 25.1251 73.1473 24.82L71.5473 26.02ZM72.1462 26.9408C72.3495 27.257 72.5432 27.63 72.7243 28.0646L74.5704 27.2954C74.3515 26.77 74.1052 26.2897 73.8285 25.8592L72.1462 26.9408ZM72.7243 28.0646C72.8961 28.477 73.0386 28.9475 73.1476 29.4804L75.1071 29.0796C74.9761 28.4391 74.7986 27.843 74.5704 27.2954L72.7243 28.0646ZM73.1533 29.5065C73.267 29.9952 73.3273 30.5448 73.3273 31.16H75.3273C75.3273 30.4152 75.2544 29.7115 75.1013 29.0535L73.1533 29.5065ZM73.3273 31.16C73.3273 32.0516 73.1851 32.8667 72.9092 33.6136L74.7854 34.3064C75.1496 33.32 75.3273 32.2684 75.3273 31.16H73.3273ZM72.911 33.6089C72.6361 34.3419 72.2467 34.9645 71.745 35.4884L73.1897 36.8716C73.888 36.1422 74.4186 35.2847 74.7837 34.3111L72.911 33.6089ZM71.7373 35.4966C71.2485 36.0187 70.6561 36.4348 69.9481 36.7432L70.7466 38.5768C71.6919 38.1652 72.5128 37.5946 73.1974 36.8634L71.7373 35.4966ZM69.9481 36.7432C69.2621 37.0419 68.4803 37.2 67.5873 37.2V39.2C68.721 39.2 69.7793 38.9981 70.7466 38.5768L69.9481 36.7432ZM67.5873 37.2C66.6791 37.2 65.891 37.0412 65.2066 36.7432L64.4081 38.5768C65.377 38.9988 66.4423 39.2 67.5873 39.2V37.2ZM65.2066 36.7432C64.4966 36.434 63.8944 36.0156 63.3897 35.4884L61.945 36.8716C62.6403 37.5978 63.4647 38.166 64.4081 38.5768L65.2066 36.7432ZM63.4045 35.5043C62.9087 34.9634 62.521 34.3283 62.2437 33.5889L60.371 34.2911C60.7337 35.2584 61.2527 36.1166 61.9302 36.8557L63.4045 35.5043ZM62.2437 33.5889C61.9697 32.8582 61.8273 32.0517 61.8273 31.16H59.8273C59.8273 32.2683 60.005 33.3151 60.371 34.2911L62.2437 33.5889ZM61.8273 31.16C61.8273 30.2683 61.9697 29.4618 62.2437 28.7311L60.371 28.0289C60.005 29.0049 59.8273 30.0517 59.8273 31.16H61.8273ZM62.2454 28.7264C62.5228 27.9752 62.9086 27.3455 63.3974 26.8234L61.9373 25.4566C61.2527 26.1878 60.7319 27.0515 60.3692 28.0336L62.2454 28.7264ZM63.3897 26.8316C63.8944 26.3044 64.4966 25.886 65.2066 25.5768L64.4081 23.7432C63.4647 24.154 62.6403 24.7222 61.945 25.4484L63.3897 26.8316ZM65.2066 25.5768C65.891 25.2788 66.6791 25.12 67.5873 25.12V23.12C66.4423 23.12 65.377 23.3212 64.4081 23.7432L65.2066 25.5768ZM67.5873 25.12C68.4016 25.12 69.1358 25.1523 69.7916 25.2154L69.9831 23.2246C69.2522 23.1543 68.453 23.12 67.5873 23.12V25.12ZM69.7934 25.2156C70.5273 25.2848 71.2255 25.32 71.8873 25.32V23.32C71.2958 23.32 70.6607 23.2885 69.9813 23.2244L69.7934 25.2156ZM71.8873 25.32C72.4998 25.32 73.0754 25.244 73.5933 25.0654L72.9414 23.1746C72.686 23.2627 72.3416 23.32 71.8873 23.32V25.32ZM73.5933 25.0654C74.1077 24.888 74.5671 24.6155 74.957 24.2441L73.5777 22.7959C73.4076 22.9579 73.2003 23.0853 72.9414 23.1746L73.5933 25.0654ZM73.5498 24.2165L74.2098 24.8965L75.6449 23.5035L74.9849 22.8235L73.5498 24.2165ZM74.1273 31.16C74.1273 30.2426 74.0183 29.3943 73.7835 28.6273L71.8711 29.2127C72.0363 29.7524 72.1273 30.3974 72.1273 31.16H74.1273ZM73.7852 28.6327C73.5697 27.9144 73.3109 27.2713 73.0015 26.7144L71.2532 27.6856C71.4771 28.0887 71.685 28.5922 71.8695 29.2073L73.7852 28.6327ZM73.0169 26.7432C72.7414 26.2068 72.4464 25.7394 72.1242 25.3664L70.6105 26.6736C70.795 26.8872 71.0066 27.2066 71.2378 27.6568L73.0169 26.7432ZM72.1383 25.3831C71.8871 25.079 71.6791 24.8376 71.5344 24.6929L70.1202 26.1071C70.1889 26.1757 70.3409 26.3477 70.5964 26.6569L72.1383 25.3831ZM70.8813 24.4015C70.395 24.3752 69.8813 24.3423 69.3403 24.3027L69.1944 26.2973C69.7467 26.3377 70.2731 26.3715 70.7734 26.3985L70.8813 24.4015ZM69.3668 24.305C68.7968 24.248 68.1967 24.22 67.5673 24.22V26.22C68.138 26.22 68.6712 26.2454 69.1678 26.295L69.3668 24.305ZM67.5673 24.22C66.6203 24.22 65.7301 24.3885 64.9113 24.7418L65.7034 26.5782C66.2446 26.3448 66.861 26.22 67.5673 26.22V24.22ZM64.9266 24.7353C64.1117 25.0709 63.4068 25.5636 62.824 26.211L64.3106 27.549C64.6879 27.1298 65.143 26.8091 65.6881 26.5847L64.9266 24.7353ZM62.8325 26.2017C62.2537 26.8288 61.8149 27.5731 61.5075 28.4183L63.3871 29.1017C63.6131 28.4802 63.9209 27.9712 64.3021 27.5583L62.8325 26.2017ZM61.5096 28.4127C61.1962 29.2588 61.0473 30.1785 61.0473 31.16H63.0473C63.0473 30.3815 63.1651 29.7012 63.3851 29.1073L61.5096 28.4127ZM61.0473 31.16C61.0473 32.1418 61.1963 33.0658 61.5075 33.9217L63.3871 33.2383C63.165 32.6275 63.0473 31.9382 63.0473 31.16H61.0473ZM61.5096 33.9273C61.8178 34.7593 62.2566 35.4944 62.8325 36.1183L64.3021 34.7617C63.918 34.3456 63.6103 33.8407 63.3851 33.2327L61.5096 33.9273ZM62.8419 36.1283C63.4314 36.7497 64.1313 37.2331 64.9313 37.5782L65.7234 35.7418C65.1634 35.5002 64.6899 35.1703 64.2928 34.7517L62.8419 36.1283ZM64.9313 37.5782C65.7501 37.9314 66.6403 38.1 67.5873 38.1V36.1C66.881 36.1 66.2646 35.9752 65.7234 35.7418L64.9313 37.5782ZM67.5873 38.1C68.5285 38.1 69.4132 37.9402 70.2281 37.6047L69.4666 35.7553C68.9215 35.9798 68.2996 36.1 67.5873 36.1V38.1ZM70.2434 37.5982C71.0458 37.2521 71.7429 36.7658 72.3221 36.1383L70.8525 34.7817C70.4718 35.1942 70.0089 35.5212 69.4512 35.7618L70.2434 37.5982ZM72.3214 36.139C72.9087 35.5041 73.3556 34.7631 73.6651 33.9273L71.7896 33.2327C71.5658 33.8369 71.2526 34.3492 70.8532 34.781L72.3214 36.139ZM73.6671 33.9217C73.9784 33.0658 74.1273 32.1418 74.1273 31.16H72.1273C72.1273 31.9382 72.0096 32.6275 71.7876 33.2383L73.6671 33.9217ZM86.5858 38V39H87.5858V38H86.5858ZM78.8258 38H77.8258V39H78.8258V38ZM78.8258 24.32V23.32H77.8258V24.32H78.8258ZM80.0458 24.32H81.0458V23.32H80.0458V24.32ZM80.0458 36.86H79.0458V37.86H80.0458V36.86ZM86.5858 36.86H87.5858V35.86H86.5858V36.86ZM86.5858 37H78.8258V39H86.5858V37ZM79.8258 38V24.32H77.8258V38H79.8258ZM78.8258 25.32H80.0458V23.32H78.8258V25.32ZM79.0458 24.32V36.86H81.0458V24.32H79.0458ZM80.0458 37.86H86.5858V35.86H80.0458V37.86ZM85.5858 36.86V38H87.5858V36.86H85.5858Z" fill="#223035"/>
</svg>
