<svg width="112" height="112" viewBox="0 0 112 112" fill="none" xmlns="http://www.w3.org/2000/svg">
<g filter="url(#filter0_dd)">
<circle cx="56" cy="48" r="40" fill="#F9F5F1"/>
<circle cx="56" cy="48" r="40" fill="#F9F5F1"/>
<circle cx="56" cy="48" r="40" fill="#F9F5F1"/>
<circle cx="56" cy="48" r="40" fill="#F9F5F1"/>
<circle cx="56" cy="48" r="40" fill="#F9F5F1"/>
<circle cx="56" cy="48" r="40" fill="#F9F5F1"/>
<path fill-rule="evenodd" clip-rule="evenodd" d="M56 8C33.9133 8 16 25.9067 16 48C16 70.09 33.9133 88 56 88C78.09 88 96 70.09 96 48C96 25.9067 78.09 8 56 8ZM66.7467 67.57C67.3733 68.0133 68.18 68.1233 68.9 67.8533C69.6167 67.58 70.1467 66.9633 70.3067 66.2167C71.9967 58.2767 76.0967 38.1767 77.6333 30.9567C77.75 30.41 77.5567 29.8433 77.13 29.48C76.7 29.1167 76.1067 29.0133 75.58 29.2067C67.4267 32.2267 42.3167 41.6467 32.0533 45.4433C31.4033 45.6867 30.98 46.31 31 47C31.0233 47.6867 31.4867 48.2833 32.1533 48.4833C36.7567 49.86 42.7967 51.7767 42.7967 51.7767C42.7967 51.7767 45.62 60.3033 47.09 64.6367C47.2767 65.1833 47.7033 65.61 48.2633 65.7567C48.8267 65.9033 49.4233 65.75 49.8433 65.3533C52.2067 63.1233 55.86 59.6733 55.86 59.6733C55.86 59.6733 62.8067 64.7633 66.7467 67.57ZM45.3367 50.6967L48.6033 61.4667L49.33 54.6467C49.33 54.6467 61.94 43.27 69.1333 36.7867C69.3433 36.5967 69.37 36.2767 69.1967 36.0533C69.0233 35.83 68.7033 35.7767 68.4667 35.93C60.1333 41.25 45.3367 50.6967 45.3367 50.6967Z" fill="#223035"/>
</g>
<defs>
<filter id="filter0_dd" x="0" y="0" width="112" height="112" filterUnits="userSpaceOnUse" color-interpolation-filters="sRGB">
<feFlood flood-opacity="0" result="BackgroundImageFix"/>
<feColorMatrix in="SourceAlpha" type="matrix" values="0 0 0 0 0 0 0 0 0 0 0 0 0 0 0 0 0 0 127 0"/>
<feOffset dy="8"/>
<feGaussianBlur stdDeviation="8"/>
<feColorMatrix type="matrix" values="0 0 0 0 0.133333 0 0 0 0 0.188235 0 0 0 0 0.207843 0 0 0 0.4 0"/>
<feBlend mode="normal" in2="BackgroundImageFix" result="effect1_dropShadow"/>
<feColorMatrix in="SourceAlpha" type="matrix" values="0 0 0 0 0 0 0 0 0 0 0 0 0 0 0 0 0 0 127 0"/>
<feOffset dy="2"/>
<feGaussianBlur stdDeviation="2"/>
<feColorMatrix type="matrix" values="0 0 0 0 0.133333 0 0 0 0 0.188235 0 0 0 0 0.207843 0 0 0 0.25 0"/>
<feBlend mode="normal" in2="effect1_dropShadow" result="effect2_dropShadow"/>
<feBlend mode="normal" in="SourceGraphic" in2="effect2_dropShadow" result="shape"/>
</filter>
</defs>
</svg>
