<svg width="80" height="80" viewBox="0 0 80 80" fill="none" xmlns="http://www.w3.org/2000/svg">
<circle cx="40" cy="40" r="40" fill="#F9F5F1"/>
<circle cx="40" cy="40" r="40" fill="#F9F5F1"/>
<circle cx="40" cy="40" r="40" fill="#F9F5F1"/>
<circle cx="40" cy="40" r="40" fill="#F9F5F1"/>
<circle cx="40" cy="40" r="40" fill="#F9F5F1"/>
<circle cx="40" cy="40" r="40" fill="#F9F5F1"/>
<path fill-rule="evenodd" clip-rule="evenodd" d="M40 0C17.9133 0 0 17.9067 0 40C0 62.09 17.9133 80 40 80C62.09 80 80 62.09 80 40C80 17.9067 62.09 0 40 0ZM50.7467 59.57C51.3733 60.0133 52.18 60.1233 52.9 59.8533C53.6167 59.58 54.1467 58.9633 54.3067 58.2167C55.9967 50.2767 60.0967 30.1767 61.6333 22.9567C61.75 22.41 61.5567 21.8433 61.13 21.48C60.7 21.1167 60.1067 21.0133 59.58 21.2067C51.4267 24.2267 26.3167 33.6467 16.0533 37.4433C15.4033 37.6867 14.98 38.31 15 39C15.0233 39.6867 15.4867 40.2833 16.1533 40.4833C20.7567 41.86 26.7967 43.7767 26.7967 43.7767C26.7967 43.7767 29.62 52.3033 31.09 56.6367C31.2767 57.1833 31.7033 57.61 32.2633 57.7567C32.8267 57.9033 33.4233 57.75 33.8433 57.3533C36.2067 55.1233 39.86 51.6733 39.86 51.6733C39.86 51.6733 46.8067 56.7633 50.7467 59.57ZM29.3367 42.6967L32.6033 53.4667L33.33 46.6467C33.33 46.6467 45.94 35.27 53.1333 28.7867C53.3433 28.5967 53.37 28.2767 53.1967 28.0533C53.0233 27.83 52.7033 27.7767 52.4667 27.93C44.1333 33.25 29.3367 42.6967 29.3367 42.6967Z" fill="#223035"/>
</svg>
