<svg width="112" height="112" viewBox="0 0 112 112" fill="none" xmlns="http://www.w3.org/2000/svg">
<g filter="url(#filter0_dd)">
<circle cx="56" cy="48" r="40" fill="#F9F5F1"/>
<path fill-rule="evenodd" clip-rule="evenodd" d="M56 8C33.9133 8 16 25.9067 16 48C16 70.09 33.9133 88 56 88C78.09 88 96 70.09 96 48C96 25.9067 78.09 8 56 8ZM74.0667 31.5267C72.8433 30.4 67.9 26.8133 56.8933 26.7633C56.8933 26.7633 43.9133 25.98 37.5867 31.7867C34.0667 35.31 32.8267 40.46 32.6967 46.8533C32.5667 53.2467 32.3967 65.22 43.94 68.47L43.95 68.4733L43.9433 73.4267C43.9433 73.4267 43.8733 75.4333 45.1933 75.8433C46.79 76.34 47.7267 74.8133 49.2533 73.17C50.09 72.27 51.2467 70.9433 52.12 69.93C60.0133 70.59 66.0867 69.0767 66.7767 68.85C68.37 68.3333 77.3933 67.1767 78.86 55.2033C80.3733 42.8567 78.1267 35.0467 74.0667 31.5267ZM75.4033 54.31C74.1633 64.31 66.85 64.9433 65.5 65.3733C64.9267 65.56 59.59 66.8867 52.8833 66.4467C52.8833 66.4467 47.8867 72.4767 46.3267 74.0433C46.0833 74.29 45.7967 74.39 45.6033 74.3433C45.3367 74.2767 45.2633 73.96 45.2667 73.4933L45.3067 65.26C35.5433 62.5467 36.1133 52.35 36.2233 47.0133C36.3333 41.6767 37.3367 37.3033 40.3133 34.36C45.6667 29.5133 56.69 30.2367 56.69 30.2367C66.0033 30.28 70.4633 33.0833 71.4967 34.0233C74.9333 36.9633 76.6833 44 75.4033 54.31ZM57.83 54.9133C57.83 54.9133 58.7033 54.99 59.1733 54.4067L60.0933 53.25C60.5333 52.6767 61.6067 52.31 62.6533 52.8933C64.04 53.6767 65.8333 54.9067 67.06 56.0533C67.7367 56.6233 67.8933 57.4633 67.4333 58.35L67.4267 58.37C66.9533 59.2067 66.32 59.99 65.5167 60.7233L65.5 60.7367C64.5967 61.49 63.56 61.9267 62.45 61.5667L62.43 61.5367C60.4367 60.9733 55.6567 58.5333 52.61 56.1033C47.6233 52.17 44.08 45.6833 43.1 42.2067L43.07 42.1867C42.71 41.0733 43.15 40.0333 43.9 39.1367L43.9133 39.12C44.6433 38.3167 45.43 37.6833 46.2667 37.2067L46.2833 37.2033C47.17 36.7433 48.01 36.9 48.5833 37.5767C49.3367 38.3533 50.75 40.2233 51.74 41.9833C52.3233 43.03 51.96 44.1 51.3867 44.5433L50.23 45.46C49.6467 45.9333 49.7233 46.8067 49.7233 46.8067C49.7233 46.8067 51.4333 53.28 57.83 54.9133ZM67.8933 49.5467C68.2367 49.5433 68.5133 49.2633 68.5133 48.92C68.48 44.8233 67.2267 41.5367 64.7867 39.1533C62.35 36.78 59.28 35.5633 55.67 35.5367H55.6633C55.3233 35.5367 55.0433 35.8133 55.04 36.1533C55.04 36.4967 55.3167 36.78 55.66 36.78C58.94 36.8033 61.7167 37.9033 63.9167 40.0467C66.11 42.1867 67.24 45.1767 67.2667 48.93C67.27 49.27 67.5467 49.5467 67.89 49.5467H67.8933ZM64.62 48.2667H64.6067C64.26 48.26 63.99 47.9767 63.9967 47.63C64.0467 45.5033 63.4367 43.78 62.14 42.3667C60.8467 40.9533 59.0733 40.18 56.7167 40.0067C56.3733 39.9833 56.1133 39.6833 56.14 39.3433C56.1667 39 56.4633 38.7433 56.8067 38.7667C59.46 38.96 61.5633 39.89 63.0567 41.5233C64.56 43.1667 65.2967 45.23 65.24 47.66C65.2333 48 64.9567 48.2667 64.62 48.2667ZM61.4267 47.1967C61.0967 47.1967 60.82 46.94 60.8033 46.6067C60.7 44.4933 59.7033 43.46 57.6733 43.35C57.33 43.33 57.0667 43.0367 57.0833 42.6933C57.1033 42.35 57.3967 42.0867 57.74 42.1067C60.42 42.25 61.91 43.7867 62.0467 46.5433C62.0633 46.8867 61.8 47.18 61.4567 47.1967H61.4267Z" fill="#223035"/>
</g>
<defs>
<filter id="filter0_dd" x="0" y="0" width="112" height="112" filterUnits="userSpaceOnUse" color-interpolation-filters="sRGB">
<feFlood flood-opacity="0" result="BackgroundImageFix"/>
<feColorMatrix in="SourceAlpha" type="matrix" values="0 0 0 0 0 0 0 0 0 0 0 0 0 0 0 0 0 0 127 0"/>
<feOffset dy="8"/>
<feGaussianBlur stdDeviation="8"/>
<feColorMatrix type="matrix" values="0 0 0 0 0.133333 0 0 0 0 0.188235 0 0 0 0 0.207843 0 0 0 0.4 0"/>
<feBlend mode="normal" in2="BackgroundImageFix" result="effect1_dropShadow"/>
<feColorMatrix in="SourceAlpha" type="matrix" values="0 0 0 0 0 0 0 0 0 0 0 0 0 0 0 0 0 0 127 0"/>
<feOffset dy="2"/>
<feGaussianBlur stdDeviation="2"/>
<feColorMatrix type="matrix" values="0 0 0 0 0.133333 0 0 0 0 0.188235 0 0 0 0 0.207843 0 0 0 0.25 0"/>
<feBlend mode="normal" in2="effect1_dropShadow" result="effect2_dropShadow"/>
<feBlend mode="normal" in="SourceGraphic" in2="effect2_dropShadow" result="shape"/>
</filter>
</defs>
</svg>
