<svg width="80" height="80" viewBox="0 0 80 80" fill="none" xmlns="http://www.w3.org/2000/svg">
<circle cx="40" cy="40" r="40" fill="#F9F5F1"/>
<circle cx="40" cy="40" r="40" fill="#F9F5F1"/>
<circle cx="40" cy="40" r="40" fill="#F9F5F1"/>
<circle cx="40" cy="40" r="40" fill="#F9F5F1"/>
<circle cx="40" cy="40" r="40" fill="#F9F5F1"/>
<circle cx="40" cy="40" r="40" fill="#F9F5F1"/>
<path fill-rule="evenodd" clip-rule="evenodd" d="M40 0C17.9133 0 0 17.9067 0 40C0 62.09 17.9133 80 40 80C62.09 80 80 62.09 80 40C80 17.9067 62.09 0 40 0ZM58.0667 23.5267C56.8433 22.4 51.9 18.8133 40.8933 18.7633C40.8933 18.7633 27.9133 17.98 21.5867 23.7867C18.0667 27.31 16.8267 32.46 16.6967 38.8533C16.5667 45.2467 16.3967 57.22 27.94 60.47L27.95 60.4733L27.9433 65.4267C27.9433 65.4267 27.8733 67.4333 29.1933 67.8433C30.79 68.34 31.7267 66.8133 33.2533 65.17C34.09 64.27 35.2467 62.9433 36.12 61.93C44.0133 62.59 50.0867 61.0767 50.7767 60.85C52.37 60.3333 61.3933 59.1767 62.86 47.2033C64.3733 34.8567 62.1267 27.0467 58.0667 23.5267ZM59.4033 46.31C58.1633 56.31 50.85 56.9433 49.5 57.3733C48.9267 57.56 43.59 58.8867 36.8833 58.4467C36.8833 58.4467 31.8867 64.4767 30.3267 66.0433C30.0833 66.29 29.7967 66.39 29.6033 66.3433C29.3367 66.2767 29.2633 65.96 29.2667 65.4933L29.3067 57.26C19.5433 54.5467 20.1133 44.35 20.2233 39.0133C20.3333 33.6767 21.3367 29.3033 24.3133 26.36C29.6667 21.5133 40.69 22.2367 40.69 22.2367C50.0033 22.28 54.4633 25.0833 55.4967 26.0233C58.9333 28.9633 60.6833 36 59.4033 46.31ZM41.83 46.9133C41.83 46.9133 42.7033 46.99 43.1733 46.4067L44.0933 45.25C44.5333 44.6767 45.6067 44.31 46.6533 44.8933C48.04 45.6767 49.8333 46.9067 51.06 48.0533C51.7367 48.6233 51.8933 49.4633 51.4333 50.35L51.4267 50.37C50.9533 51.2067 50.32 51.99 49.5167 52.7233L49.5 52.7367C48.5967 53.49 47.56 53.9267 46.45 53.5667L46.43 53.5367C44.4367 52.9733 39.6567 50.5333 36.61 48.1033C31.6233 44.17 28.08 37.6833 27.1 34.2067L27.07 34.1867C26.71 33.0733 27.15 32.0333 27.9 31.1367L27.9133 31.12C28.6433 30.3167 29.43 29.6833 30.2667 29.2067L30.2833 29.2033C31.17 28.7433 32.01 28.9 32.5833 29.5767C33.3367 30.3533 34.75 32.2233 35.74 33.9833C36.3233 35.03 35.96 36.1 35.3867 36.5433L34.23 37.46C33.6467 37.9333 33.7233 38.8067 33.7233 38.8067C33.7233 38.8067 35.4333 45.28 41.83 46.9133ZM51.8933 41.5467C52.2367 41.5433 52.5133 41.2633 52.5133 40.92C52.48 36.8233 51.2267 33.5367 48.7867 31.1533C46.35 28.78 43.28 27.5633 39.67 27.5367H39.6633C39.3233 27.5367 39.0433 27.8133 39.04 28.1533C39.04 28.4967 39.3167 28.78 39.66 28.78C42.94 28.8033 45.7167 29.9033 47.9167 32.0467C50.11 34.1867 51.24 37.1767 51.2667 40.93C51.27 41.27 51.5467 41.5467 51.89 41.5467H51.8933ZM48.62 40.2667H48.6067C48.26 40.26 47.99 39.9767 47.9967 39.63C48.0467 37.5033 47.4367 35.78 46.14 34.3667C44.8467 32.9533 43.0733 32.18 40.7167 32.0067C40.3733 31.9833 40.1133 31.6833 40.14 31.3433C40.1667 31 40.4633 30.7433 40.8067 30.7667C43.46 30.96 45.5633 31.89 47.0567 33.5233C48.56 35.1667 49.2967 37.23 49.24 39.66C49.2333 40 48.9567 40.2667 48.62 40.2667ZM45.4267 39.1967C45.0967 39.1967 44.82 38.94 44.8033 38.6067C44.7 36.4933 43.7033 35.46 41.6733 35.35C41.33 35.33 41.0667 35.0367 41.0833 34.6933C41.1033 34.35 41.3967 34.0867 41.74 34.1067C44.42 34.25 45.91 35.7867 46.0467 38.5433C46.0633 38.8867 45.8 39.18 45.4567 39.1967H45.4267Z" fill="#223035"/>
</svg>
