<svg width="40" height="40" viewBox="0 0 40 40" fill="none" xmlns="http://www.w3.org/2000/svg">
<circle cx="20" cy="20" r="20" fill="#F9F5F1"/>
<path fill-rule="evenodd" clip-rule="evenodd" d="M20 0C8.95667 0 0 8.95333 0 20C0 31.045 8.95667 40 20 40C31.045 40 40 31.045 40 20C40 8.95333 31.045 0 20 0ZM29.0333 11.7633C28.4217 11.2 25.95 9.40667 20.4467 9.38167C20.4467 9.38167 13.9567 8.99 10.7933 11.8933C9.03333 13.655 8.41333 16.23 8.34833 19.4267C8.28333 22.6233 8.19833 28.61 13.97 30.235L13.975 30.2367L13.9717 32.7133C13.9717 32.7133 13.9367 33.7167 14.5967 33.9217C15.395 34.17 15.8633 33.4067 16.6267 32.585C17.045 32.135 17.6233 31.4717 18.06 30.965C22.0067 31.295 25.0433 30.5383 25.3883 30.425C26.185 30.1667 30.6967 29.5883 31.43 23.6017C32.1867 17.4283 31.0633 13.5233 29.0333 11.7633V11.7633ZM29.7017 23.155C29.0817 28.155 25.425 28.4717 24.75 28.6867C24.4633 28.78 21.795 29.4433 18.4417 29.2233C18.4417 29.2233 15.9433 32.2383 15.1633 33.0217C15.0417 33.145 14.8983 33.195 14.8017 33.1717C14.6683 33.1383 14.6317 32.98 14.6333 32.7467L14.6533 28.63C9.77167 27.2733 10.0567 22.175 10.1117 19.5067C10.1667 16.8383 10.6683 14.6517 12.1567 13.18C14.8333 10.7567 20.345 11.1183 20.345 11.1183C25.0017 11.14 27.2317 12.5417 27.7483 13.0117C29.4667 14.4817 30.3417 18 29.7017 23.155ZM20.915 23.4567C20.915 23.4567 21.3517 23.495 21.5867 23.2033L22.0467 22.625C22.2667 22.3383 22.8033 22.155 23.3267 22.4467C24.02 22.8383 24.9167 23.4533 25.53 24.0267C25.8683 24.3117 25.9467 24.7317 25.7167 25.175L25.7133 25.185C25.4767 25.6033 25.16 25.995 24.7583 26.3617L24.75 26.3683C24.2983 26.745 23.78 26.9633 23.225 26.7833L23.215 26.7683C22.2183 26.4867 19.8283 25.2667 18.305 24.0517C15.8117 22.085 14.04 18.8417 13.55 17.1033L13.535 17.0933C13.355 16.5367 13.575 16.0167 13.95 15.5683L13.9567 15.56C14.3217 15.1583 14.715 14.8417 15.1333 14.6033L15.1417 14.6017C15.585 14.3717 16.005 14.45 16.2917 14.7883C16.6683 15.1767 17.375 16.1117 17.87 16.9917C18.1617 17.515 17.98 18.05 17.6933 18.2717L17.115 18.73C16.8233 18.9667 16.8617 19.4033 16.8617 19.4033C16.8617 19.4033 17.7167 22.64 20.915 23.4567V23.4567ZM25.9467 20.7733C26.1183 20.7717 26.2567 20.6317 26.2567 20.46C26.24 18.4117 25.6133 16.7683 24.3933 15.5767C23.175 14.39 21.64 13.7817 19.835 13.7683H19.8317C19.6617 13.7683 19.5217 13.9067 19.52 14.0767C19.52 14.2483 19.6583 14.39 19.83 14.39C21.47 14.4017 22.8583 14.9517 23.9583 16.0233C25.055 17.0933 25.62 18.5883 25.6333 20.465C25.635 20.635 25.7733 20.7733 25.945 20.7733H25.9467ZM24.31 20.1333H24.3033C24.13 20.13 23.995 19.9883 23.9983 19.815C24.0233 18.7517 23.7183 17.89 23.07 17.1833C22.4233 16.4767 21.5367 16.09 20.3583 16.0033C20.1867 15.9917 20.0567 15.8417 20.07 15.6717C20.0833 15.5 20.2317 15.3717 20.4033 15.3833C21.73 15.48 22.7817 15.945 23.5283 16.7617C24.28 17.5833 24.6483 18.615 24.62 19.83C24.6167 20 24.4783 20.1333 24.31 20.1333V20.1333ZM22.7133 19.5983C22.5483 19.5983 22.41 19.47 22.4017 19.3033C22.35 18.2467 21.8517 17.73 20.8367 17.675C20.665 17.665 20.5333 17.5183 20.5417 17.3467C20.5517 17.175 20.6983 17.0433 20.87 17.0533C22.21 17.125 22.955 17.8933 23.0233 19.2717C23.0317 19.4433 22.9 19.59 22.7283 19.5983H22.7133Z" fill="#223035"/>
</svg>
