<svg width="80" height="80" viewBox="0 0 80 80" fill="none" xmlns="http://www.w3.org/2000/svg">
<circle cx="40" cy="40" r="40" fill="#F9F5F1"/>
<circle cx="40" cy="40" r="40" fill="#F9F5F1"/>
<circle cx="40" cy="40" r="40" fill="#F9F5F1"/>
<circle cx="40" cy="40" r="40" fill="#F9F5F1"/>
<circle cx="40" cy="40" r="40" fill="#F9F5F1"/>
<circle cx="40" cy="40" r="40" fill="#F9F5F1"/>
<path d="M40 0C17.91 0 0 17.91 0 40C0 62.09 17.91 80 40 80C62.09 80 80 62.09 80 40C80 17.91 62.09 0 40 0ZM61.1467 53.8767H54.9233C51.4067 53.8767 50.8167 51.8733 47.9167 48.98C45.3 46.3633 43.85 48.37 43.91 52.0967C43.93 53.0867 43.44 53.8767 42.26 53.8767C38.5767 53.8767 33.28 54.3967 27.9133 48.61C22.4233 42.68 16.6667 30.7833 16.6667 29.6133C16.6667 28.92 17.24 28.61 18.1967 28.61H24.5233C26.2 28.61 26.34 29.44 26.81 30.5033C28.7567 34.94 33.4133 43.8433 34.6567 38.8733C35.37 36.02 35.66 29.41 32.6067 28.84C30.8733 28.52 33.9267 26.6667 38.3467 26.6667C39.4467 26.6667 40.64 26.7833 41.86 27.0667C44.1033 27.5867 44.1133 28.5933 44.08 30.06C43.9667 35.6133 43.2967 39.3467 44.76 40.29C46.1567 41.1933 49.83 35.2833 51.7733 30.72C52.3033 29.46 52.41 28.6133 53.9167 28.6133H61.6567C65.71 28.6133 61.1267 34.44 57.6233 38.9867C54.8 42.65 54.95 42.72 58.2333 45.7667C60.57 47.9367 63.3333 50.9 63.3333 52.5767C63.3333 53.37 62.7133 53.8767 61.1467 53.8767Z" fill="#223035"/>
</svg>
