<svg width="112" height="112" viewBox="0 0 112 112" fill="none" xmlns="http://www.w3.org/2000/svg">
<g filter="url(#filter0_dd)">
<circle cx="56" cy="48" r="40" fill="#F9F5F1"/>
<circle cx="56" cy="48" r="40" fill="#F9F5F1"/>
<circle cx="56" cy="48" r="40" fill="#F9F5F1"/>
<circle cx="56" cy="48" r="40" fill="#F9F5F1"/>
<circle cx="56" cy="48" r="40" fill="#F9F5F1"/>
<circle cx="56" cy="48" r="40" fill="#F9F5F1"/>
<path d="M56 8C33.91 8 16 25.91 16 48C16 70.09 33.91 88 56 88C78.09 88 96 70.09 96 48C96 25.91 78.09 8 56 8ZM77.1467 61.8767H70.9233C67.4067 61.8767 66.8167 59.8733 63.9167 56.98C61.3 54.3633 59.85 56.37 59.91 60.0967C59.93 61.0867 59.44 61.8767 58.26 61.8767C54.5767 61.8767 49.28 62.3967 43.9133 56.61C38.4233 50.68 32.6667 38.7833 32.6667 37.6133C32.6667 36.92 33.24 36.61 34.1967 36.61H40.5233C42.2 36.61 42.34 37.44 42.81 38.5033C44.7567 42.94 49.4133 51.8433 50.6567 46.8733C51.37 44.02 51.66 37.41 48.6067 36.84C46.8733 36.52 49.9267 34.6667 54.3467 34.6667C55.4467 34.6667 56.64 34.7833 57.86 35.0667C60.1033 35.5867 60.1133 36.5933 60.08 38.06C59.9667 43.6133 59.2967 47.3467 60.76 48.29C62.1567 49.1933 65.83 43.2833 67.7733 38.72C68.3033 37.46 68.41 36.6133 69.9167 36.6133H77.6567C81.71 36.6133 77.1267 42.44 73.6233 46.9867C70.8 50.65 70.95 50.72 74.2333 53.7667C76.57 55.9367 79.3333 58.9 79.3333 60.5767C79.3333 61.37 78.7133 61.8767 77.1467 61.8767Z" fill="#223035"/>
</g>
<defs>
<filter id="filter0_dd" x="0" y="0" width="112" height="112" filterUnits="userSpaceOnUse" color-interpolation-filters="sRGB">
<feFlood flood-opacity="0" result="BackgroundImageFix"/>
<feColorMatrix in="SourceAlpha" type="matrix" values="0 0 0 0 0 0 0 0 0 0 0 0 0 0 0 0 0 0 127 0"/>
<feOffset dy="8"/>
<feGaussianBlur stdDeviation="8"/>
<feColorMatrix type="matrix" values="0 0 0 0 0.133333 0 0 0 0 0.188235 0 0 0 0 0.207843 0 0 0 0.4 0"/>
<feBlend mode="normal" in2="BackgroundImageFix" result="effect1_dropShadow"/>
<feColorMatrix in="SourceAlpha" type="matrix" values="0 0 0 0 0 0 0 0 0 0 0 0 0 0 0 0 0 0 127 0"/>
<feOffset dy="2"/>
<feGaussianBlur stdDeviation="2"/>
<feColorMatrix type="matrix" values="0 0 0 0 0.133333 0 0 0 0 0.188235 0 0 0 0 0.207843 0 0 0 0.25 0"/>
<feBlend mode="normal" in2="effect1_dropShadow" result="effect2_dropShadow"/>
<feBlend mode="normal" in="SourceGraphic" in2="effect2_dropShadow" result="shape"/>
</filter>
</defs>
</svg>
