<svg width="48" height="48" viewBox="0 0 48 48" fill="none" xmlns="http://www.w3.org/2000/svg">
<path d="M24 0C10.746 0 0 10.746 0 24C0 37.254 10.746 48 24 48C37.254 48 48 37.254 48 24C48 10.746 37.254 0 24 0ZM36.688 32.326H32.954C30.844 32.326 30.49 31.124 28.75 29.388C27.18 27.818 26.31 29.022 26.346 31.258C26.358 31.852 26.064 32.326 25.356 32.326C23.146 32.326 19.968 32.638 16.748 29.166C13.454 25.608 10 18.47 10 17.768C10 17.352 10.344 17.166 10.918 17.166H14.714C15.72 17.166 15.804 17.664 16.086 18.302C17.254 20.964 20.048 26.306 20.794 23.324C21.222 21.612 21.396 17.646 19.564 17.304C18.524 17.112 20.356 16 23.008 16C23.668 16 24.384 16.07 25.116 16.24C26.462 16.552 26.468 17.156 26.448 18.036C26.38 21.368 25.978 23.608 26.856 24.174C27.694 24.716 29.898 21.17 31.064 18.432C31.382 17.676 31.446 17.168 32.35 17.168H36.994C39.426 17.168 36.676 20.664 34.574 23.392C32.88 25.59 32.97 25.632 34.94 27.46C36.342 28.762 38 30.54 38 31.546C38 32.022 37.628 32.326 36.688 32.326Z" fill="#223035"/>
</svg>
