<svg width="69" height="36" viewBox="0 0 69 36" fill="none" xmlns="http://www.w3.org/2000/svg">
<path d="M-0.938715 32.5724C0.334827 32.5724 0.865472 31.9136 1.60837 31.2549C2.4574 30.4314 3.41256 29.2786 5.32287 29.2786C7.23319 29.2786 8.29447 30.2667 9.03737 31.2549C9.78027 32.0783 10.3109 32.5724 11.5845 32.5724C12.858 32.5724 13.3886 31.9136 14.1315 31.2549C14.9806 30.4314 15.9357 29.2786 17.846 29.2786C19.7564 29.2786 20.8176 30.2667 21.5605 31.2549C22.3034 32.0783 22.8341 32.5724 24.1076 32.5724C25.3812 32.5724 25.9118 31.9136 26.6547 31.2549C27.5037 30.4314 28.4589 29.2786 30.3692 29.2786C32.2795 29.2786 33.3408 30.2667 34.0837 31.2549C34.8266 32.0783 35.3573 32.5724 36.6308 32.5724C37.9043 32.5724 38.435 31.9136 39.1779 31.2549C40.0269 30.4314 40.9821 29.2786 42.8924 29.2786C44.8027 29.2786 45.864 30.2667 46.6069 31.2549C47.3498 32.0783 47.8804 32.5724 49.154 32.5724C50.4275 32.5724 50.9582 31.9136 51.7011 31.2549C52.5501 30.4314 53.5052 29.2786 55.4156 29.2786C57.3259 29.2786 58.3872 30.2667 59.1301 31.2549C59.873 32.0783 60.4036 32.5724 61.6771 32.5724C62.9507 32.5724 63.4813 31.9136 64.2242 31.2549C65.0732 30.4314 66.0284 29.2786 67.9387 29.2786C68.5755 29.2786 69 29.9373 69 30.9255C69 31.9136 68.5755 32.5724 67.9387 32.5724C66.6652 32.5724 66.1345 33.2312 65.3916 33.8899C64.5426 34.7134 63.5875 35.8662 61.6771 35.8662C59.7668 35.8662 58.7055 34.8781 57.9626 33.8899C57.2197 33.0665 56.6891 32.5724 55.4156 32.5724C54.142 32.5724 53.6114 33.2312 52.8685 33.8899C52.0194 34.7134 51.0643 35.8662 49.154 35.8662C47.2437 35.8662 46.1824 34.8781 45.4395 33.8899C44.6966 33.0665 44.1659 32.5724 42.8924 32.5724C41.6188 32.5724 41.0882 33.2312 40.3453 33.8899C39.4963 34.7134 38.5411 35.8662 36.6308 35.8662C34.7205 35.8662 33.6592 34.8781 32.9163 33.8899C32.1734 33.0665 31.6428 32.5724 30.3692 32.5724C29.0957 32.5724 28.565 33.2312 27.8221 33.8899C26.9731 34.7134 26.0179 35.8662 24.1076 35.8662C22.1973 35.8662 21.136 34.8781 20.3931 33.8899C19.6502 33.0665 19.1196 32.5724 17.846 32.5724C16.5725 32.5724 16.0419 33.2312 15.299 33.8899C14.4499 34.7134 13.4948 35.8662 11.5845 35.8662C9.67414 35.8662 8.61286 34.8781 7.86996 33.8899C7.12706 33.0665 6.59641 32.5724 5.32287 32.5724C4.04933 32.5724 3.51868 33.2312 2.77578 33.8899C1.92676 34.7134 0.971599 35.8662 -0.938715 35.8662C-1.57549 35.8662 -2 35.2074 -2 34.2193C-2 33.2312 -1.57549 32.5724 -0.938715 32.5724Z" fill="#223035"/>
<path d="M-0.938715 17.9327C0.334827 17.9327 0.865472 17.274 1.60837 16.6152C2.4574 15.7918 3.41256 14.6389 5.32287 14.6389C7.23319 14.6389 8.29447 15.6271 9.03737 16.6152C9.78027 17.4387 10.3109 17.9327 11.5845 17.9327C12.858 17.9327 13.3886 17.274 14.1315 16.6152C14.9806 15.7918 15.9357 14.6389 17.846 14.6389C19.7564 14.6389 20.8176 15.6271 21.5605 16.6152C22.3034 17.4387 22.8341 17.9327 24.1076 17.9327C25.3812 17.9327 25.9118 17.274 26.6547 16.6152C27.5037 15.7918 28.4589 14.6389 30.3692 14.6389C32.2795 14.6389 33.3408 15.6271 34.0837 16.6152C34.8266 17.4387 35.3573 17.9327 36.6308 17.9327C37.9043 17.9327 38.435 17.274 39.1779 16.6152C40.0269 15.7918 40.9821 14.6389 42.8924 14.6389C44.8027 14.6389 45.864 15.6271 46.6069 16.6152C47.3498 17.4387 47.8804 17.9327 49.154 17.9327C50.4275 17.9327 50.9582 17.274 51.7011 16.6152C52.5501 15.7918 53.5052 14.6389 55.4156 14.6389C57.3259 14.6389 58.3872 15.6271 59.1301 16.6152C59.873 17.4387 60.4036 17.9327 61.6771 17.9327C62.9507 17.9327 63.4813 17.274 64.2242 16.6152C65.0732 15.7918 66.0284 14.6389 67.9387 14.6389C68.5755 14.6389 69 15.2977 69 16.2858C69 17.274 68.5755 17.9327 67.9387 17.9327C66.6652 17.9327 66.1345 18.5915 65.3916 19.2503C64.5426 20.0737 63.5875 21.2266 61.6771 21.2266C59.7668 21.2266 58.7055 20.2384 57.9626 19.2503C57.2197 18.4268 56.6891 17.9327 55.4156 17.9327C54.142 17.9327 53.6114 18.5915 52.8685 19.2503C52.0194 20.0737 51.0643 21.2266 49.154 21.2266C47.2437 21.2266 46.1824 20.2384 45.4395 19.2503C44.6966 18.4268 44.1659 17.9327 42.8924 17.9327C41.6188 17.9327 41.0882 18.5915 40.3453 19.2503C39.4963 20.0737 38.5411 21.2266 36.6308 21.2266C34.7205 21.2266 33.6592 20.2384 32.9163 19.2503C32.1734 18.4268 31.6428 17.9327 30.3692 17.9327C29.0957 17.9327 28.565 18.5915 27.8221 19.2503C26.9731 20.0737 26.0179 21.2266 24.1076 21.2266C22.1973 21.2266 21.136 20.2384 20.3931 19.2503C19.6502 18.4268 19.1196 17.9327 17.846 17.9327C16.5725 17.9327 16.0419 18.5915 15.299 19.2503C14.4499 20.0737 13.4948 21.2266 11.5845 21.2266C9.67414 21.2266 8.61286 20.2384 7.86996 19.2503C7.12706 18.4268 6.59641 17.9327 5.32287 17.9327C4.04933 17.9327 3.51868 18.5915 2.77578 19.2503C1.92676 20.0737 0.971599 21.2266 -0.938715 21.2266C-1.57549 21.2266 -2 20.5678 -2 19.5797C-2 18.5915 -1.57549 17.9327 -0.938715 17.9327Z" fill="#223035"/>
<path d="M-0.938715 3.29408C0.334827 3.29408 0.865472 2.63531 1.60837 1.97655C2.4574 1.1531 3.41256 0.000261784 5.32287 0.000261784C7.23319 0.000261784 8.29447 0.988407 9.03737 1.97655C9.78027 2.80001 10.3109 3.29408 11.5845 3.29408C12.858 3.29408 13.3886 2.63531 14.1315 1.97655C14.9806 1.1531 15.9357 0.000261784 17.846 0.000261784C19.7564 0.000261784 20.8176 0.988407 21.5605 1.97655C22.3034 2.80001 22.8341 3.29408 24.1076 3.29408C25.3812 3.29408 25.9118 2.63531 26.6547 1.97655C27.5037 1.1531 28.4589 0.000261784 30.3692 0.000261784C32.2795 0.000261784 33.3408 0.988407 34.0837 1.97655C34.8266 2.80001 35.3573 3.29408 36.6308 3.29408C37.9043 3.29408 38.435 2.63531 39.1779 1.97655C40.0269 1.1531 40.9821 0.000261784 42.8924 0.000261784C44.8027 0.000261784 45.864 0.988407 46.6069 1.97655C47.3498 2.80001 47.8804 3.29408 49.154 3.29408C50.4275 3.29408 50.9582 2.63531 51.7011 1.97655C52.5501 1.1531 53.5052 0.000261784 55.4156 0.000261784C57.3259 0.000261784 58.3872 0.988407 59.1301 1.97655C59.873 2.80001 60.4036 3.29408 61.6771 3.29408C62.9507 3.29408 63.4813 2.63531 64.2242 1.97655C65.0732 1.1531 66.0284 0.000261784 67.9387 0.000261784C68.5755 0.000261784 69 0.659025 69 1.64717C69 2.63531 68.5755 3.29408 67.9387 3.29408C66.6652 3.29408 66.1345 3.95284 65.3916 4.6116C64.5426 5.43505 63.5875 6.58789 61.6771 6.58789C59.7668 6.58789 58.7055 5.59975 57.9626 4.6116C57.2197 3.78815 56.6891 3.29408 55.4156 3.29408C54.142 3.29408 53.6114 3.95284 52.8685 4.6116C52.0194 5.43505 51.0643 6.58789 49.154 6.58789C47.2437 6.58789 46.1824 5.59975 45.4395 4.6116C44.6966 3.78815 44.1659 3.29408 42.8924 3.29408C41.6188 3.29408 41.0882 3.95284 40.3453 4.6116C39.4963 5.43505 38.5411 6.58789 36.6308 6.58789C34.7205 6.58789 33.6592 5.59975 32.9163 4.6116C32.1734 3.78815 31.6428 3.29408 30.3692 3.29408C29.0957 3.29408 28.565 3.95284 27.8221 4.6116C26.9731 5.43505 26.0179 6.58789 24.1076 6.58789C22.1973 6.58789 21.136 5.59975 20.3931 4.6116C19.6502 3.78815 19.1196 3.29408 17.846 3.29408C16.5725 3.29408 16.0419 3.95284 15.299 4.6116C14.4499 5.43505 13.4948 6.58789 11.5845 6.58789C9.67414 6.58789 8.61286 5.59975 7.86996 4.6116C7.12706 3.78815 6.59641 3.29408 5.32287 3.29408C4.04933 3.29408 3.51868 3.95284 2.77578 4.6116C1.92676 5.43505 0.971599 6.58789 -0.938715 6.58789C-1.57549 6.58789 -2 5.92913 -2 4.94098C-2 3.95284 -1.57549 3.29408 -0.938715 3.29408Z" fill="#223035"/>
</svg>
