<svg width="48" height="48" viewBox="0 0 48 48" fill="none" xmlns="http://www.w3.org/2000/svg">
<circle cx="24" cy="24" r="24" fill="#F9F5F1"/>
<path d="M24.062 12.344C17.7 12.344 12.528 17.516 12.526 23.876C12.524 26.472 13.286 28.416 14.564 30.45L13.4 34.706L17.764 33.56C19.72 34.72 21.586 35.416 24.054 35.418C30.41 35.418 35.588 30.244 35.59 23.886C35.592 17.512 30.44 12.346 24.062 12.344ZM30.846 28.832C30.558 29.642 29.172 30.38 28.506 30.48C27.908 30.57 27.152 30.606 26.322 30.342C25.818 30.182 25.172 29.968 24.346 29.612C20.868 28.11 18.598 24.608 18.424 24.378C18.25 24.146 17.008 22.498 17.008 20.792C17.008 19.086 17.904 18.246 18.222 17.9C18.54 17.554 18.914 17.466 19.146 17.466L19.81 17.478C20.022 17.488 20.308 17.398 20.59 18.074C20.878 18.768 21.572 20.474 21.658 20.648C21.744 20.822 21.802 21.024 21.686 21.256C21.57 21.488 21.512 21.632 21.34 21.834L20.82 22.442C20.646 22.614 20.466 22.802 20.668 23.15C20.87 23.498 21.566 24.632 22.596 25.552C23.92 26.734 25.038 27.1 25.384 27.272C25.73 27.444 25.932 27.416 26.136 27.186C26.338 26.954 27.002 26.174 27.234 25.826C27.466 25.48 27.696 25.536 28.014 25.652C28.332 25.768 30.036 26.606 30.382 26.78C30.728 26.954 30.96 27.04 31.046 27.184C31.136 27.328 31.136 28.022 30.846 28.832ZM24 0C10.746 0 0 10.746 0 24C0 37.254 10.746 48 24 48C37.254 48 48 37.254 48 24C48 10.746 37.254 0 24 0ZM24.058 37.76C21.736 37.76 19.448 37.176 17.422 36.072L10.068 38L12.036 30.81C10.822 28.706 10.182 26.318 10.184 23.874C10.186 16.224 16.41 10 24.058 10C27.77 10.002 31.254 11.446 33.872 14.068C36.492 16.69 37.934 20.176 37.932 23.884C37.93 31.534 31.706 37.76 24.058 37.76Z" fill="#223035"/>
</svg>
