<svg width="80" height="80" viewBox="0 0 80 80" fill="none" xmlns="http://www.w3.org/2000/svg">
<circle cx="40" cy="40" r="40" fill="#F9F5F1"/>
<circle cx="40" cy="40" r="40" fill="#F9F5F1"/>
<circle cx="40" cy="40" r="40" fill="#F9F5F1"/>
<circle cx="40" cy="40" r="40" fill="#F9F5F1"/>
<circle cx="40" cy="40" r="40" fill="#F9F5F1"/>
<circle cx="40" cy="40" r="40" fill="#F9F5F1"/>
<path d="M40.1033 20.5733C29.5 20.5733 20.88 29.1933 20.8767 39.7933C20.8733 44.12 22.1433 47.36 24.2733 50.75L22.3333 57.8433L29.6067 55.9333C32.8667 57.8667 35.9767 59.0267 40.09 59.03C50.6833 59.03 59.3133 50.4067 59.3167 39.81C59.32 29.1867 50.7333 20.5767 40.1033 20.5733ZM51.41 48.0533C50.93 49.4033 48.62 50.6333 47.51 50.8C46.5133 50.95 45.2533 51.01 43.87 50.57C43.03 50.3033 41.9533 49.9467 40.5767 49.3533C34.78 46.85 30.9967 41.0133 30.7067 40.63C30.4167 40.2433 28.3467 37.4967 28.3467 34.6533C28.3467 31.81 29.84 30.41 30.37 29.8333C30.9 29.2567 31.5233 29.11 31.91 29.11L33.0167 29.13C33.37 29.1467 33.8467 28.9967 34.3167 30.1233C34.7967 31.28 35.9533 34.1233 36.0967 34.4133C36.24 34.7033 36.3367 35.04 36.1433 35.4267C35.95 35.8133 35.8533 36.0533 35.5667 36.39L34.7 37.4033C34.41 37.69 34.11 38.0033 34.4467 38.5833C34.7833 39.1633 35.9433 41.0533 37.66 42.5867C39.8667 44.5567 41.73 45.1667 42.3067 45.4533C42.8833 45.74 43.22 45.6933 43.56 45.31C43.8967 44.9233 45.0033 43.6233 45.39 43.0433C45.7767 42.4667 46.16 42.56 46.69 42.7533C47.22 42.9467 50.06 44.3433 50.6367 44.6333C51.2133 44.9233 51.6 45.0667 51.7433 45.3067C51.8933 45.5467 51.8933 46.7033 51.41 48.0533ZM40 0C17.91 0 0 17.91 0 40C0 62.09 17.91 80 40 80C62.09 80 80 62.09 80 40C80 17.91 62.09 0 40 0ZM40.0967 62.9333C36.2267 62.9333 32.4133 61.96 29.0367 60.12L16.78 63.3333L20.06 51.35C18.0367 47.8433 16.97 43.8633 16.9733 39.79C16.9767 27.04 27.35 16.6667 40.0967 16.6667C46.2833 16.67 52.09 19.0767 56.4533 23.4467C60.82 27.8167 63.2233 33.6267 63.22 39.8067C63.2167 52.5567 52.8433 62.9333 40.0967 62.9333Z" fill="#223035"/>
</svg>
