<svg width="112" height="112" viewBox="0 0 112 112" fill="none" xmlns="http://www.w3.org/2000/svg">
<g filter="url(#filter0_dd)">
<circle cx="56" cy="48" r="40" fill="#F9F5F1"/>
<circle cx="56" cy="48" r="40" fill="#F9F5F1"/>
<circle cx="56" cy="48" r="40" fill="#F9F5F1"/>
<circle cx="56" cy="48" r="40" fill="#F9F5F1"/>
<circle cx="56" cy="48" r="40" fill="#F9F5F1"/>
<circle cx="56" cy="48" r="40" fill="#F9F5F1"/>
<path d="M56.1033 28.5733C45.5 28.5733 36.88 37.1933 36.8767 47.7933C36.8733 52.12 38.1433 55.36 40.2733 58.75L38.3333 65.8433L45.6067 63.9333C48.8667 65.8667 51.9767 67.0267 56.09 67.03C66.6833 67.03 75.3133 58.4067 75.3167 47.81C75.32 37.1867 66.7333 28.5767 56.1033 28.5733ZM67.41 56.0533C66.93 57.4033 64.62 58.6333 63.51 58.8C62.5133 58.95 61.2533 59.01 59.87 58.57C59.03 58.3033 57.9533 57.9467 56.5767 57.3533C50.78 54.85 46.9967 49.0133 46.7067 48.63C46.4167 48.2433 44.3467 45.4967 44.3467 42.6533C44.3467 39.81 45.84 38.41 46.37 37.8333C46.9 37.2567 47.5233 37.11 47.91 37.11L49.0167 37.13C49.37 37.1467 49.8467 36.9967 50.3167 38.1233C50.7967 39.28 51.9533 42.1233 52.0967 42.4133C52.24 42.7033 52.3367 43.04 52.1433 43.4267C51.95 43.8133 51.8533 44.0533 51.5667 44.39L50.7 45.4033C50.41 45.69 50.11 46.0033 50.4467 46.5833C50.7833 47.1633 51.9433 49.0533 53.66 50.5867C55.8667 52.5567 57.73 53.1667 58.3067 53.4533C58.8833 53.74 59.22 53.6933 59.56 53.31C59.8967 52.9233 61.0033 51.6233 61.39 51.0433C61.7767 50.4667 62.16 50.56 62.69 50.7533C63.22 50.9467 66.06 52.3433 66.6367 52.6333C67.2133 52.9233 67.6 53.0667 67.7433 53.3067C67.8933 53.5467 67.8933 54.7033 67.41 56.0533ZM56 8C33.91 8 16 25.91 16 48C16 70.09 33.91 88 56 88C78.09 88 96 70.09 96 48C96 25.91 78.09 8 56 8ZM56.0967 70.9333C52.2267 70.9333 48.4133 69.96 45.0367 68.12L32.78 71.3333L36.06 59.35C34.0367 55.8433 32.97 51.8633 32.9733 47.79C32.9767 35.04 43.35 24.6667 56.0967 24.6667C62.2833 24.67 68.09 27.0767 72.4533 31.4467C76.82 35.8167 79.2233 41.6267 79.22 47.8067C79.2167 60.5567 68.8433 70.9333 56.0967 70.9333Z" fill="#223035"/>
</g>
<defs>
<filter id="filter0_dd" x="0" y="0" width="112" height="112" filterUnits="userSpaceOnUse" color-interpolation-filters="sRGB">
<feFlood flood-opacity="0" result="BackgroundImageFix"/>
<feColorMatrix in="SourceAlpha" type="matrix" values="0 0 0 0 0 0 0 0 0 0 0 0 0 0 0 0 0 0 127 0"/>
<feOffset dy="8"/>
<feGaussianBlur stdDeviation="8"/>
<feColorMatrix type="matrix" values="0 0 0 0 0.133333 0 0 0 0 0.188235 0 0 0 0 0.207843 0 0 0 0.4 0"/>
<feBlend mode="normal" in2="BackgroundImageFix" result="effect1_dropShadow"/>
<feColorMatrix in="SourceAlpha" type="matrix" values="0 0 0 0 0 0 0 0 0 0 0 0 0 0 0 0 0 0 127 0"/>
<feOffset dy="2"/>
<feGaussianBlur stdDeviation="2"/>
<feColorMatrix type="matrix" values="0 0 0 0 0.133333 0 0 0 0 0.188235 0 0 0 0 0.207843 0 0 0 0.25 0"/>
<feBlend mode="normal" in2="effect1_dropShadow" result="effect2_dropShadow"/>
<feBlend mode="normal" in="SourceGraphic" in2="effect2_dropShadow" result="shape"/>
</filter>
</defs>
</svg>
